<?xml version="1.0" encoding="UTF-8"?>
<!-- Generator: visioncortex VTracer 0.6.3 -->
<svg version="1.1" xmlns="http://www.w3.org/2000/svg" width="1280" height="341">
<path d="M0 0 C1.1 -0 2.2 -0.01 3.33 -0.01 C4.48 -0 5.64 0.01 6.82 0.02 C7.97 0.01 9.11 0 10.28 -0.01 C11.94 -0 11.94 -0 13.62 0 C14.63 0 15.64 0 16.68 0.01 C19.68 0.28 21.84 0.9 24.51 2.27 C25.64 4.58 25.64 4.58 26.51 7.27 C27.27 8.36 27.27 8.36 28.04 9.48 C30.72 14.55 29.99 20.37 29.96 25.99 C29.95 28.19 29.98 30.4 30.01 32.61 C30.01 34.02 30.01 35.44 30.01 36.86 C30.01 38.13 30.01 39.41 30.01 40.73 C29.42 44.89 28.14 47.02 25.51 50.27 C24.52 50.93 23.53 51.59 22.51 52.27 C23.27 52.8 24.04 53.34 24.82 53.89 C28.66 57.28 30.29 60.5 30.93 65.59 C31.02 72.24 31.02 72.24 31.01 75.15 C31.01 77.2 31.05 79.24 31.1 81.28 C31.12 92.3 31.12 92.3 28.11 96.71 C25.51 99.27 25.51 99.27 23.51 99.27 C23.51 99.93 23.51 100.59 23.51 101.27 C24.11 101.49 24.71 101.72 25.32 101.95 C28.18 103.67 29.03 105.3 30.51 108.27 C30.98 111.18 30.98 111.18 31.09 114.38 C31.14 115.54 31.18 116.71 31.23 117.91 C31.28 119.73 31.28 119.73 31.32 121.58 C31.4 123.38 31.4 123.38 31.48 125.21 C31.98 140.51 31.98 140.51 27.39 145.64 C26.77 146.18 26.15 146.71 25.51 147.27 C25.51 147.93 25.51 148.59 25.51 149.27 C26.32 150.01 27.12 150.75 27.95 151.52 C32.57 156.48 31.69 163.25 31.79 169.72 C31.81 170.69 31.83 171.65 31.85 172.65 C31.91 175.94 31.96 179.23 32.01 182.52 C32.05 184.89 32.09 187.26 32.13 189.63 C32.51 212.68 32.78 235.74 33.04 258.8 C33.07 261.73 33.11 264.66 33.14 267.59 C33.35 285.46 33.55 303.33 33.6 321.21 C33.6 323.17 33.61 325.14 33.62 327.11 C33.62 328.27 33.62 329.43 33.62 330.62 C33.63 332.12 33.63 332.12 33.63 333.66 C33.52 336.02 33.19 338.01 32.51 340.27 C26.57 340.34 20.62 340.39 14.68 340.43 C12.65 340.45 10.63 340.47 8.61 340.49 C5.7 340.53 2.8 340.55 -0.11 340.56 C-1.01 340.57 -1.92 340.59 -2.86 340.61 C-4.12 340.61 -4.12 340.61 -5.41 340.61 C-6.52 340.62 -6.52 340.62 -7.65 340.63 C-8.26 340.51 -8.86 340.39 -9.49 340.27 C-10.15 339.28 -10.81 338.29 -11.49 337.27 C-11.82 338.26 -12.15 339.25 -12.49 340.27 C-26.35 340.27 -40.21 340.27 -54.49 340.27 C-55.76 337.72 -55.64 335.9 -55.68 333.06 C-55.69 331.96 -55.71 330.86 -55.73 329.74 C-55.74 328.53 -55.76 327.33 -55.77 326.1 C-55.79 324.85 -55.81 323.6 -55.82 322.32 C-55.86 319.63 -55.9 316.95 -55.93 314.26 C-56.01 307.99 -56.11 301.73 -56.2 295.46 C-56.22 294.06 -56.24 292.67 -56.27 291.27 C-56.45 278.83 -56.71 266.39 -57.05 253.95 C-57.07 253.13 -57.1 252.3 -57.12 251.45 C-57.24 247.06 -57.36 242.66 -57.49 238.27 C-56.83 238.27 -56.17 238.27 -55.49 238.27 C-55.65 237.42 -55.82 236.57 -55.99 235.7 C-56.79 230.21 -56.52 224.76 -56.36 219.22 C-56.3 217.14 -56.27 215.06 -56.24 212.99 C-56.19 211.02 -56.19 211.02 -56.13 209.01 C-56.11 207.81 -56.08 206.61 -56.05 205.38 C-55.38 201.69 -54.43 200.51 -51.49 198.27 C-48.78 197.36 -46.95 197.1 -44.14 196.98 C-43.31 196.95 -42.48 196.91 -41.62 196.87 C-38.99 196.77 -38.99 196.77 -36.36 196.66 C-35.53 196.62 -34.69 196.59 -33.83 196.55 C-33.07 196.52 -32.31 196.49 -31.53 196.46 C-29.29 196.32 -29.29 196.32 -26.49 195.27 C-23.12 196 -20.3 197.28 -17.49 199.27 C-16.03 201.58 -15.12 203.76 -14.24 206.34 C-13.66 208.46 -13.66 208.46 -11.49 209.27 C-11.49 206.63 -11.49 203.99 -11.49 201.27 C-10.87 201.02 -10.25 200.77 -9.61 200.52 C-7.14 199.06 -6.54 197.89 -5.49 195.27 C-6.29 194.59 -7.1 193.9 -7.93 193.2 C-13.14 187.23 -11.74 177.84 -11.8 170.27 C-11.83 169.12 -11.86 167.97 -11.89 166.78 C-11.94 160.03 -11.53 155.76 -7.49 150.27 C-6.83 150.27 -6.17 150.27 -5.49 150.27 C-6.59 147.78 -7.66 146.08 -9.52 144.06 C-11.97 140.58 -12.07 138.44 -12.2 134.21 C-12.23 133.54 -12.25 132.87 -12.27 132.19 C-12.32 130.78 -12.36 129.38 -12.38 127.97 C-12.43 125.84 -12.51 123.7 -12.59 121.57 C-12.63 120.2 -12.67 118.83 -12.7 117.46 C-12.74 116.22 -12.77 114.99 -12.8 113.71 C-12.26 107.72 -9.31 103.75 -5.49 99.27 C-6.09 99.04 -6.68 98.81 -7.3 98.58 C-10.19 96.84 -11.02 95.31 -12.49 92.27 C-12.8 89.67 -12.96 87.32 -12.96 84.73 C-12.96 84.02 -12.97 83.31 -12.98 82.57 C-12.99 81.07 -12.99 79.57 -12.99 78.06 C-12.99 75.77 -13.03 73.48 -13.07 71.19 C-13.08 69.73 -13.08 68.26 -13.08 66.8 C-13.1 66.12 -13.11 65.44 -13.13 64.74 C-13.08 60.89 -12.6 59.39 -10.08 56.42 C-9.22 55.71 -8.37 55 -7.49 54.27 C-6.83 53.61 -6.17 52.95 -5.49 52.27 C-6.46 51.48 -7.43 50.7 -8.43 49.89 C-10.33 48.35 -11.38 47.47 -12.49 45.27 C-12.77 40.38 -12.8 35.49 -12.84 30.6 C-12.85 28.97 -12.88 27.34 -12.92 25.71 C-13.31 9 -13.31 9 -7.49 2.27 C-4.86 -0.36 -3.66 0.01 0 0 Z M28.51 160.27 C28.84 160.93 29.17 161.59 29.51 162.27 C29.84 161.61 30.17 160.95 30.51 160.27 C29.85 160.27 29.19 160.27 28.51 160.27 Z M-5.49 196.27 C-5.16 196.93 -4.83 197.59 -4.49 198.27 C-4.16 197.61 -3.83 196.95 -3.49 196.27 C-4.15 196.27 -4.81 196.27 -5.49 196.27 Z " fill="#2C6470" transform="translate(146.48828125,0.734375)"/>
<path d="M0 0 C0.95 -0.03 1.89 -0.05 2.87 -0.08 C3.67 -0.1 4.47 -0.13 5.3 -0.16 C8.13 0.28 9.36 1.2 11.43 3.17 C11.97 5.58 11.97 5.58 12.02 8.49 C12.05 9.59 12.08 10.69 12.11 11.83 C12.13 13.65 12.13 13.65 12.15 15.51 C12.19 17.43 12.19 17.43 12.23 19.4 C12.31 22.92 12.36 26.45 12.4 29.98 C12.44 32.89 12.49 35.8 12.54 38.71 C12.71 48.21 12.83 57.72 12.93 67.23 C12.99 71.62 13.04 76.02 13.1 80.42 C13.19 87.78 13.27 95.13 13.36 102.49 C13.48 112.83 13.61 123.17 13.73 133.52 C13.82 140.74 13.91 147.97 14 155.19 C14.02 156.93 14.04 158.66 14.06 160.4 C14.12 165.34 14.18 170.28 14.24 175.21 C14.25 176.7 14.27 178.19 14.29 179.67 C14.3 180.37 14.31 181.07 14.31 181.78 C14.33 182.8 14.33 182.8 14.34 183.83 C14.36 185.75 14.37 187.67 14.39 189.6 C14.42 191.94 14.47 194.29 14.55 196.63 C14.57 197.69 14.6 198.75 14.63 199.84 C14.66 200.75 14.69 201.67 14.73 202.61 C14.36 205.77 13.28 207.61 11.43 210.17 C7.14 212.32 1.49 211.48 -3.26 211.52 C-4.67 211.54 -6.08 211.57 -7.49 211.6 C-9.52 211.66 -11.55 211.68 -13.59 211.7 C-14.81 211.72 -16.03 211.73 -17.28 211.76 C-21.58 210.99 -22.95 209.62 -25.57 206.17 C-26.69 203.17 -26.69 203.17 -27.38 199.82 C-27.65 198.57 -27.92 197.32 -28.19 196.03 C-28.47 194.68 -28.74 193.33 -29.01 191.98 C-29.3 190.6 -29.6 189.21 -29.89 187.82 C-30.5 184.99 -31.1 182.16 -31.69 179.32 C-32.99 173.14 -34.44 167 -35.88 160.86 C-37.38 154.47 -38.83 148.09 -40.03 141.63 C-40.73 138.43 -41.66 135.32 -42.57 132.17 C-42.56 133.12 -42.56 134.06 -42.55 135.04 C-42.49 143.94 -42.44 152.84 -42.41 161.74 C-42.4 166.32 -42.38 170.9 -42.34 175.47 C-42.31 179.89 -42.29 184.31 -42.29 188.72 C-42.28 190.41 -42.27 192.09 -42.25 193.78 C-42.23 196.14 -42.23 198.5 -42.23 200.85 C-42.22 201.55 -42.21 202.25 -42.2 202.98 C-42.22 205.81 -42.27 207.73 -43.89 210.1 C-46.72 211.9 -49.5 211.56 -52.79 211.57 C-53.49 211.57 -54.2 211.58 -54.92 211.58 C-56.4 211.58 -57.88 211.58 -59.36 211.56 C-61.63 211.55 -63.9 211.56 -66.17 211.58 C-67.6 211.58 -69.04 211.58 -70.48 211.57 C-72.45 211.57 -72.45 211.57 -74.45 211.56 C-75.48 211.43 -76.51 211.3 -77.57 211.17 C-79.89 207.69 -79.86 206.21 -79.96 202.1 C-80 200.83 -80.04 199.56 -80.07 198.26 C-80.1 196.85 -80.13 195.45 -80.16 194.04 C-80.2 192.56 -80.23 191.08 -80.27 189.6 C-80.39 184.79 -80.48 179.98 -80.57 175.17 C-80.58 174.38 -80.6 173.58 -80.61 172.76 C-80.84 159.94 -81 147.12 -81.13 134.3 C-81.14 133.37 -81.15 132.44 -81.16 131.48 C-81.31 117.72 -81.43 103.95 -81.55 90.19 C-81.57 87.16 -81.6 84.13 -81.62 81.11 C-81.73 69.37 -81.81 57.63 -81.86 45.9 C-81.87 42.21 -81.9 38.53 -81.93 34.85 C-81.97 30.54 -81.99 26.23 -81.99 21.92 C-81.99 20.34 -82.01 18.76 -82.02 17.18 C-82.05 15.03 -82.05 12.88 -82.04 10.74 C-82.05 9.53 -82.05 8.33 -82.06 7.09 C-81.57 4.17 -81.57 4.17 -79.74 2.29 C-76.62 0.68 -74 0.77 -70.5 0.74 C-69.83 0.73 -69.15 0.73 -68.46 0.72 C-67.03 0.72 -65.61 0.72 -64.19 0.73 C-62.01 0.73 -59.84 0.71 -57.66 0.67 C-56.27 0.67 -54.89 0.67 -53.5 0.68 C-52.25 0.67 -50.99 0.67 -49.69 0.67 C-46.57 1.17 -46.57 1.17 -44.69 3.08 C-41.58 8.9 -40.22 15.26 -39.1 21.71 C-38.6 24.27 -38.6 24.27 -37.6 27.08 C-36.56 30.2 -35.85 33.26 -35.2 36.48 C-34.08 41.86 -32.86 47.21 -31.57 52.55 C-29.89 59.55 -28.51 66.58 -27.28 73.68 C-26.61 76.97 -25.66 80 -24.57 83.17 C-24.57 82.22 -24.58 81.26 -24.58 80.28 C-24.62 71.29 -24.65 62.3 -24.67 53.31 C-24.68 48.69 -24.7 44.07 -24.72 39.45 C-24.74 34.99 -24.75 30.53 -24.76 26.06 C-24.76 24.36 -24.77 22.66 -24.78 20.96 C-24.8 18.58 -24.8 16.19 -24.8 13.81 C-24.8 13.11 -24.81 12.4 -24.82 11.68 C-24.8 7.73 -24.3 4.73 -22.57 1.17 C-15.05 0.74 -7.53 0.36 0 0 Z " fill="#2C6471" transform="translate(514.5703125,11.828125)"/>
<path d="M0 0 C2.28 -0.03 4.55 -0.05 6.83 -0.06 C7.84 -0.07 7.84 -0.07 8.88 -0.09 C21.46 -0.12 30.86 3.17 40.36 11.34 C51.78 24.61 53.33 38.73 53.57 55.63 C53.61 58.46 53.7 61.28 53.78 64.11 C54.12 78.41 54.13 93.36 44.68 105.03 C41.04 108.79 37.44 111.83 32.68 114.03 C33.04 118.17 33.79 121.57 35.41 125.4 C38.58 133.15 41.27 141.06 44.05 148.95 C46.1 154.73 48.2 160.42 50.68 166.03 C51.16 167.4 51.62 168.77 52.05 170.15 C53.3 174 54.71 177.76 56.18 181.53 C57.93 186.04 59.58 190.56 61.05 195.18 C61.7 197.19 61.7 197.19 62.86 199.65 C63.95 202.83 63.81 205.7 63.68 209.03 C60.53 210.6 57.16 210.23 53.71 210.27 C52.92 210.28 52.13 210.28 51.32 210.29 C49.65 210.31 47.98 210.32 46.31 210.33 C43.75 210.34 41.2 210.39 38.64 210.43 C37.02 210.44 35.4 210.45 33.77 210.46 C33.01 210.47 32.24 210.49 31.45 210.51 C26.16 210.49 26.16 210.49 23.74 208.19 C22.32 205.3 21.36 202.43 20.43 199.34 C20.22 198.66 20.01 197.97 19.8 197.26 C14.84 180.7 10.35 164 6.04 147.26 C5.08 143.56 4.1 139.88 3.09 136.2 C2.83 135.23 2.56 134.26 2.29 133.25 C2.08 132.52 1.88 131.79 1.68 131.03 C1.68 131.98 1.69 132.92 1.69 133.89 C1.73 142.8 1.76 151.7 1.78 160.6 C1.79 165.18 1.8 169.76 1.83 174.33 C1.85 178.75 1.86 183.16 1.87 187.58 C1.87 189.27 1.88 190.95 1.89 192.64 C1.9 195 1.9 197.35 1.9 199.71 C1.91 200.41 1.92 201.11 1.93 201.83 C1.91 205.47 1.76 206.91 -0.32 210.03 C-5.41 211.73 -10.82 211.29 -16.15 211.33 C-17.55 211.34 -18.96 211.36 -20.37 211.39 C-22.4 211.43 -24.44 211.45 -26.48 211.46 C-28.3 211.48 -28.3 211.48 -30.16 211.5 C-34.03 210.93 -34.94 210.07 -37.32 207.03 C-37.85 204.29 -37.85 204.29 -37.88 201.08 C-37.9 199.86 -37.92 198.64 -37.95 197.38 C-37.95 196.03 -37.96 194.68 -37.96 193.32 C-37.98 191.9 -38 190.47 -38.02 189.04 C-38.08 185.15 -38.11 181.27 -38.13 177.38 C-38.16 173.25 -38.22 169.13 -38.27 165.01 C-38.35 158.04 -38.42 151.08 -38.48 144.11 C-38.56 134.47 -38.67 124.83 -38.78 115.19 C-38.99 97.03 -39.14 78.86 -39.27 60.7 C-39.31 55.71 -39.35 50.72 -39.4 45.74 C-39.46 39.66 -39.51 33.58 -39.54 27.51 C-39.55 25.36 -39.57 23.22 -39.59 21.08 C-39.62 18.21 -39.64 15.34 -39.64 12.47 C-39.66 11.64 -39.67 10.82 -39.68 9.97 C-39.67 4.55 -39.67 4.55 -38 2.03 C-35.18 0.35 -32.43 0.58 -29.19 0.52 C-28.13 0.49 -28.13 0.49 -27.04 0.46 C-24.76 0.41 -22.48 0.38 -20.2 0.34 C-18.72 0.31 -17.24 0.27 -15.76 0.24 C-10.5 0.12 -5.25 0.07 0 0 Z M1.68 37.03 C-0.46 40.23 -0.56 40.93 -0.47 44.58 C-0.46 45.49 -0.44 46.41 -0.42 47.36 C-0.39 48.35 -0.37 49.33 -0.34 50.35 C-0.31 51.36 -0.29 52.38 -0.27 53.42 C-0.22 55.57 -0.16 57.71 -0.1 59.85 C-0.01 63.15 0.06 66.44 0.14 69.74 C0.19 71.82 0.24 73.9 0.29 75.98 C0.31 76.97 0.34 77.96 0.36 78.98 C0.39 79.89 0.41 80.8 0.44 81.74 C0.46 82.55 0.48 83.35 0.5 84.18 C0.48 86.05 0.48 86.05 1.68 87.03 C7.5 87.37 7.5 87.37 12.68 85.03 C14.38 81.63 13.86 77.75 13.88 74.01 C13.89 73.11 13.89 72.21 13.9 71.29 C13.91 69.38 13.91 67.48 13.92 65.58 C13.93 62.67 13.96 59.77 13.99 56.86 C14 55.01 14 53.17 14 51.32 C14.02 50.01 14.02 50.01 14.04 48.68 C14.03 43.89 14.03 43.89 12.3 39.49 C10.19 37.59 8.8 37.44 5.99 37.28 C5.18 37.22 4.37 37.17 3.54 37.11 C2.93 37.08 2.31 37.06 1.68 37.03 Z " fill="#2C6471" transform="translate(688.3233642578125,9.9700927734375)"/>
<path d="M0 0 C8.2 7.04 12.94 16.28 14 27 C14.25 31.35 14.39 35.7 14.53 40.05 C14.57 41.32 14.61 42.6 14.65 43.91 C15.09 58.02 15.35 72.14 15.56 86.25 C15.57 86.92 15.58 87.59 15.59 88.27 C15.75 98.52 15.88 108.76 16 119 C16.02 120.25 16.03 121.49 16.05 122.78 C16.13 129.66 16.2 136.55 16.23 143.43 C16.24 145.49 16.26 147.55 16.28 149.6 C16.45 165.72 16.47 182.71 4.86 195.27 C-5.18 204.61 -18.21 207.95 -31.69 208.44 C-45.28 207.81 -57.06 204.43 -67 195 C-67 194.34 -67 193.68 -67 193 C-67.66 193 -68.32 193 -69 193 C-77.61 182.83 -78.1 169.12 -78.32 156.45 C-78.34 155.4 -78.36 154.35 -78.38 153.26 C-78.45 149.74 -78.51 146.21 -78.56 142.69 C-78.58 141.46 -78.6 140.24 -78.62 138.98 C-78.78 128.99 -78.9 118.99 -79 109 C-79.01 108.15 -79.02 107.3 -79.03 106.43 C-79.15 94.38 -79.24 82.32 -79.29 70.27 C-79.3 66.56 -79.33 62.86 -79.36 59.15 C-79.4 54.73 -79.42 50.3 -79.42 45.88 C-79.42 44.25 -79.43 42.61 -79.45 40.98 C-79.59 28.3 -78.07 16.86 -71 6 C-70.34 6 -69.68 6 -69 6 C-68.76 5.4 -68.51 4.81 -68.26 4.19 C-64.99 -1.5 -56.96 -4.95 -51 -7 C-33.76 -11.49 -14.84 -10.28 0 0 Z M-38.19 29.37 C-41.07 33.55 -40.51 37.7 -40.43 42.66 C-40.42 43.76 -40.42 44.86 -40.42 46 C-40.4 49.69 -40.36 53.37 -40.31 57.06 C-40.29 59.65 -40.27 62.24 -40.25 64.83 C-40.22 69.73 -40.17 74.62 -40.12 79.52 C-40.02 87.56 -39.98 95.6 -39.96 103.64 C-39.94 110.51 -39.91 117.39 -39.86 124.27 C-39.83 128.49 -39.81 132.71 -39.81 136.93 C-39.8 140.93 -39.77 144.93 -39.73 148.93 C-39.71 150.42 -39.71 151.9 -39.71 153.38 C-39.72 155.41 -39.69 157.45 -39.66 159.48 C-39.65 160.63 -39.65 161.77 -39.64 162.95 C-38.8 166.95 -37.15 168.47 -34 171 C-31 171.83 -31 171.83 -28 171 C-24.9 168.45 -23.27 166.82 -22 163 C-21.93 160.37 -21.92 157.77 -21.96 155.14 C-21.97 154.34 -21.98 153.53 -21.99 152.71 C-22.01 150.03 -22.05 147.36 -22.09 144.68 C-22.11 142.79 -22.13 140.89 -22.15 139 C-22.2 135 -22.25 131 -22.3 127 C-22.36 122.01 -22.42 117.01 -22.48 112.02 C-22.58 102.26 -22.72 92.51 -22.87 82.75 C-22.97 76.85 -23.03 70.95 -23.06 65.04 C-23.09 61.23 -23.14 57.41 -23.2 53.6 C-23.22 51.81 -23.23 50.01 -23.23 48.22 C-23.24 45.75 -23.27 43.28 -23.31 40.81 C-23.31 40.09 -23.3 39.36 -23.3 38.62 C-23.4 34.79 -23.92 33.1 -26.32 30.05 C-28.92 27.72 -28.92 27.72 -32.56 27.44 C-35.93 27.76 -35.93 27.76 -38.19 29.37 Z " fill="#2C6471" transform="translate(841,15)"/>
<path d="M0 0 C8.59 7.22 13.42 15.44 14.88 26.64 C15.67 36.2 15.92 45.77 16.12 55.36 C16.14 56.33 16.16 57.3 16.18 58.29 C16.62 80.51 16.73 102.74 16.79 124.96 C16.8 129.01 16.81 133.07 16.84 137.12 C16.87 141.97 16.88 146.82 16.88 151.67 C16.88 153.48 16.89 155.29 16.9 157.1 C17.01 172.92 15.26 184.83 3.98 196.84 C-4.74 205.22 -18.19 208.22 -30.07 208.61 C-43.9 207.96 -57.33 204.57 -66.95 194.08 C-74.59 184.32 -76.88 173.67 -76.97 161.51 C-76.99 160.39 -77.01 159.27 -77.03 158.11 C-77.09 154.42 -77.13 150.74 -77.18 147.05 C-77.22 144.45 -77.26 141.86 -77.3 139.27 C-77.38 133.83 -77.46 128.39 -77.53 122.95 C-77.62 115.37 -77.73 107.8 -77.85 100.22 C-78.07 86 -78.28 71.78 -78.41 57.56 C-78.44 55.26 -78.46 52.97 -78.49 50.67 C-78.52 47.26 -78.55 43.86 -78.57 40.45 C-78.58 39.44 -78.59 38.42 -78.61 37.38 C-78.65 24.3 -75.69 13.01 -66.67 3.25 C-49.84 -12.85 -18.4 -13.73 0 0 Z M-38.45 30.18 C-39.6 33.22 -39.56 36.16 -39.55 39.39 C-39.55 40.42 -39.54 41.45 -39.54 42.52 C-39.53 43.63 -39.53 44.74 -39.52 45.89 C-39.51 47.05 -39.51 48.21 -39.5 49.4 C-39.49 52.99 -39.47 56.58 -39.45 60.18 C-39.44 62.25 -39.43 64.33 -39.42 66.4 C-39.36 78.23 -39.26 90.07 -39.16 101.9 C-39.11 107.79 -39.06 113.68 -39.02 119.57 C-38.99 125.35 -38.94 131.12 -38.89 136.9 C-38.87 139.08 -38.85 141.26 -38.84 143.45 C-38.83 146.48 -38.8 149.51 -38.76 152.54 C-38.76 153.44 -38.76 154.33 -38.76 155.25 C-38.68 160.66 -38.23 165.35 -35.26 170.05 C-32.21 171.94 -29.93 171.66 -26.45 171.18 C-22.8 168.44 -21.57 166.97 -20.84 162.43 C-20.82 160.95 -20.83 159.46 -20.86 157.98 C-20.86 157.17 -20.86 156.35 -20.85 155.51 C-20.85 152.81 -20.89 150.11 -20.92 147.41 C-20.93 145.49 -20.93 143.58 -20.94 141.66 C-20.95 136.59 -20.99 131.52 -21.04 126.44 C-21.09 121.44 -21.1 116.44 -21.11 111.44 C-21.16 99.68 -21.28 87.93 -21.45 76.18 C-21.46 75.2 -21.47 74.23 -21.49 73.23 C-21.57 67.55 -21.67 61.87 -21.79 56.18 C-21.83 54.44 -21.86 52.69 -21.89 50.95 C-21.93 48.55 -21.99 46.15 -22.04 43.76 C-22.06 42.71 -22.06 42.71 -22.08 41.64 C-22.21 36.91 -23.08 33.37 -25.57 29.36 C-29.78 26.7 -34.51 27.55 -38.45 30.18 Z " fill="#2C6471" transform="translate(396.4453125,19.82421875)"/>
<path d="M0 0 C0.79 -0 1.58 -0.01 2.39 -0.01 C3.09 -0.02 3.79 -0.02 4.52 -0.03 C14.6 0.2 23.75 2.52 31.55 9.02 C32.88 9.88 32.88 9.88 34.24 10.77 C44.65 20.9 46.51 34.89 46.81 48.7 C46.86 52.51 46.87 56.33 46.86 60.14 C46.86 63.08 46.88 66.02 46.91 68.96 C46.96 82.29 46.97 95.55 37.55 106.02 C34.01 109.2 30.35 112.16 26.55 115.02 C27.17 120.13 28.75 124.42 30.67 129.14 C33.29 135.7 35.75 142.28 38.05 148.96 C40.32 155.52 42.64 162.06 45.05 168.58 C45.33 169.35 45.62 170.12 45.91 170.91 C47.44 175.05 48.99 179.19 50.54 183.33 C51.03 184.63 51.03 184.63 51.53 185.96 C52.15 187.63 52.78 189.3 53.42 190.97 C55.55 196.68 55.55 196.68 55.55 200.02 C56.21 200.02 56.87 200.02 57.55 200.02 C57.58 201.5 57.6 202.98 57.61 204.46 C57.62 205.28 57.63 206.1 57.65 206.95 C57.55 209.02 57.55 209.02 56.55 210.02 C51.33 210.31 46.11 210.33 40.89 210.37 C39.12 210.38 37.36 210.41 35.6 210.45 C33.07 210.5 30.53 210.53 28 210.54 C27.21 210.56 26.43 210.59 25.62 210.61 C21.71 210.59 19.96 210.41 17.09 207.67 C15.34 204.66 14.49 202.03 13.67 198.64 C13.34 197.31 13.01 195.99 12.68 194.66 C12.5 193.93 12.33 193.2 12.14 192.44 C10.99 187.75 9.77 183.07 8.55 178.39 C8.29 177.39 8.03 176.38 7.76 175.35 C6.47 170.39 5.12 165.47 3.55 160.58 C0.34 150.55 -1.96 140.24 -4.45 130.02 C-5.31 133.66 -5.51 136.86 -5.33 140.59 C-5.28 141.72 -5.23 142.84 -5.18 143.99 C-5.13 145.22 -5.07 146.44 -5.01 147.71 C-4.54 160.07 -4.25 172.43 -4.16 184.8 C-4.15 186.69 -4.12 188.58 -4.09 190.48 C-4.05 193.15 -4.03 195.82 -4.03 198.49 C-4.01 199.3 -3.99 200.1 -3.97 200.93 C-3.99 204.34 -4.19 206.61 -6.04 209.52 C-9.32 211.56 -11.66 211.52 -15.52 211.51 C-16.19 211.52 -16.87 211.52 -17.56 211.52 C-18.99 211.52 -20.41 211.51 -21.83 211.48 C-24.01 211.46 -26.19 211.46 -28.36 211.48 C-29.75 211.47 -31.13 211.46 -32.52 211.45 C-34.4 211.44 -34.4 211.44 -36.33 211.42 C-39.45 211.02 -39.45 211.02 -41.11 209.79 C-42.83 207.51 -42.87 206.13 -42.95 203.29 C-42.99 202.34 -43.02 201.39 -43.06 200.4 C-43.08 199.37 -43.1 198.34 -43.12 197.28 C-43.15 196.21 -43.19 195.14 -43.22 194.03 C-43.32 190.69 -43.39 187.36 -43.45 184.02 C-43.48 182.55 -43.48 182.55 -43.51 181.05 C-43.63 174.29 -43.69 167.53 -43.73 160.76 C-43.75 158.59 -43.77 156.42 -43.79 154.24 C-43.84 148.5 -43.88 142.75 -43.92 137 C-44.01 126.23 -44.09 115.46 -44.19 104.69 C-44.2 102.91 -44.2 102.91 -44.22 101.1 C-44.34 86.39 -44.51 71.69 -44.79 56.99 C-44.84 54.42 -44.89 51.85 -44.93 49.29 C-45.06 42.33 -45.19 35.38 -45.36 28.43 C-45.41 26.33 -45.45 24.24 -45.49 22.15 C-45.53 19.66 -45.59 17.17 -45.66 14.68 C-45.68 13.6 -45.7 12.52 -45.72 11.41 C-45.74 10.48 -45.76 9.55 -45.78 8.59 C-45.37 5.39 -44.44 3.56 -42.45 1.02 C-39.37 0.49 -36.82 0.3 -33.72 0.31 C-32.86 0.3 -32 0.28 -31.11 0.27 C-28.35 0.22 -25.59 0.21 -22.83 0.21 C-20.99 0.18 -19.15 0.16 -17.31 0.13 C-13.13 0.07 -8.95 0.04 -4.77 0.02 C-3.18 0.02 -1.59 0.01 0 0 Z M-6.45 39.02 C-6.63 42.03 -6.68 44.94 -6.64 47.96 C-6.63 48.86 -6.63 49.77 -6.62 50.71 C-6.49 62.82 -5.97 74.92 -5.45 87.02 C-1.32 87.99 0.73 88.03 4.55 86.02 C6.99 84.01 7.52 83.1 8.55 80.02 C8.76 75.69 8.73 71.37 8.73 67.04 C8.74 64.92 8.75 62.8 8.77 60.68 C8.8 53.54 8.68 46.88 6.55 40.02 C3.75 37.45 2.12 37.07 -1.64 36.71 C-4.59 36.74 -4.59 36.74 -6.45 39.02 Z " fill="#2C6471" transform="translate(1222.4511108398438,3.9820556640625)"/>
<path d="M0 0 C3.22 2.56 5.71 5.25 8.04 8.62 C8.72 9.59 8.72 9.59 9.41 10.58 C16.27 21.54 16.52 34.52 16.38 47.04 C16.36 49.35 16.36 51.65 16.37 53.96 C16.32 65.21 16.32 65.21 14.04 68.62 C8.94 70.33 3.5 69.81 -1.84 69.81 C-3.95 69.81 -6.06 69.83 -8.18 69.85 C-9.52 69.85 -10.86 69.85 -12.21 69.86 C-14.04 69.86 -14.04 69.86 -15.91 69.87 C-18.96 69.62 -18.96 69.62 -21.96 67.62 C-23.14 64.07 -23.1 61.19 -23.13 57.44 C-23.16 56 -23.18 54.57 -23.21 53.13 C-23.24 50.87 -23.27 48.62 -23.28 46.36 C-23.3 44.18 -23.34 41.99 -23.38 39.81 C-23.4 38.51 -23.41 37.2 -23.43 35.86 C-23.65 32.58 -23.65 32.58 -25.81 30.71 C-28.82 29.19 -30.63 29.08 -33.96 29.62 C-36.73 31.63 -38.67 33.2 -39.36 36.67 C-39.47 39.22 -39.41 41.72 -39.3 44.27 C-39.26 45.72 -39.26 45.72 -39.23 47.19 C-39.18 49.27 -39.12 51.34 -39.06 53.42 C-38.93 57.66 -38.87 61.89 -38.82 66.13 C-38.74 71.85 -38.63 77.56 -38.52 83.27 C-38.47 85.75 -38.43 88.23 -38.39 90.71 C-38.27 97.16 -38.15 103.61 -38.03 110.05 C-37.91 116.67 -37.79 123.28 -37.67 129.89 C-37.43 142.8 -37.2 155.71 -36.96 168.62 C-36.3 168.62 -35.64 168.62 -34.96 168.62 C-34.96 169.28 -34.96 169.94 -34.96 170.62 C-29.73 171.06 -29.73 171.06 -24.85 169.58 C-22.06 166.7 -22.41 163.8 -22.45 160 C-22.44 159.26 -22.43 158.51 -22.42 157.75 C-22.4 155.37 -22.39 153 -22.39 150.62 C-22.39 148.25 -22.38 145.88 -22.35 143.5 C-22.34 142.03 -22.33 140.55 -22.35 139.07 C-22.32 136.31 -22.23 134.13 -20.9 131.67 C-17.89 130.05 -14.88 130.2 -11.55 130.23 C-10.83 130.22 -10.11 130.22 -9.37 130.22 C-7.84 130.22 -6.32 130.22 -4.8 130.23 C-2.47 130.25 -0.14 130.23 2.2 130.21 C3.68 130.22 5.16 130.22 6.64 130.23 C7.33 130.22 8.03 130.21 8.75 130.21 C11.44 130.25 13.58 130.38 15.98 131.65 C17.68 134.81 17.47 138.06 17.44 141.55 C17.44 142.34 17.45 143.13 17.45 143.94 C17.45 145.61 17.45 147.28 17.43 148.95 C17.42 151.46 17.43 153.97 17.45 156.48 C17.47 171.54 15.97 185.38 5.36 196.88 C-5.07 206.64 -19.37 209.32 -33.3 208.98 C-43.15 208.03 -53.08 205.88 -60.96 199.62 C-61.99 198.9 -63.02 198.18 -64.08 197.44 C-71.48 190.95 -74.12 181.96 -75.96 172.62 C-76.21 171.46 -76.21 171.46 -76.48 170.27 C-76.95 167.65 -77.11 165.23 -77.16 162.57 C-77.18 161.57 -77.2 160.58 -77.22 159.55 C-77.24 158.46 -77.26 157.37 -77.27 156.25 C-77.29 155.08 -77.32 153.92 -77.34 152.72 C-77.4 148.83 -77.46 144.95 -77.52 141.06 C-77.54 139.71 -77.56 138.36 -77.58 137.01 C-77.91 114.55 -78.12 92.08 -78.19 69.62 C-78.2 66.26 -78.22 62.91 -78.24 59.55 C-78.27 55.56 -78.28 51.57 -78.28 47.58 C-78.28 46.12 -78.29 44.65 -78.3 43.19 C-78.44 27.8 -76.36 14.5 -65.71 2.81 C-49.02 -12.64 -18.42 -12.34 0 0 Z " fill="#2C6471" transform="translate(284.95703125,20.375)"/>
<path d="M0 0 C1.04 -0 2.08 -0.01 3.16 -0.01 C4.76 0 4.76 0 6.39 0.02 C7.47 0.01 8.55 0 9.67 -0.01 C11.22 -0 11.22 -0 12.81 0 C13.75 0 14.69 0 15.66 0.01 C18.37 0.28 19.94 0.79 22.21 2.27 C27.2 9.17 26.76 16.57 26.62 24.75 C26.58 27.02 26.58 29.3 26.58 31.57 C26.49 44 26.49 44 24.21 47.27 C21.21 49.27 21.21 49.27 18.21 49.27 C18.21 49.93 18.21 50.59 18.21 51.27 C18.97 51.53 19.73 51.8 20.52 52.08 C23.12 53.23 24.45 54.07 26.21 56.27 C28.01 61.67 27.51 67.65 27.56 73.32 C27.57 74.86 27.6 76.41 27.64 77.95 C27.69 80.19 27.72 82.43 27.73 84.66 C27.75 85.35 27.78 86.04 27.8 86.74 C27.78 90.69 27.37 92.08 24.67 95.05 C23.86 95.78 23.05 96.51 22.21 97.27 C22.21 98.26 22.21 99.25 22.21 100.27 C23.02 101.01 23.82 101.76 24.66 102.53 C27.81 105.91 27.88 107.52 27.98 112.07 C28.02 113.38 28.06 114.68 28.1 116.03 C28.11 117.04 28.11 117.04 28.12 118.08 C28.14 120.13 28.2 122.18 28.27 124.23 C28.47 133.17 28.5 140.34 22.21 147.27 C22.87 147.6 23.53 147.93 24.21 148.27 C24.21 148.93 24.21 149.59 24.21 150.27 C24.87 150.27 25.53 150.27 26.21 150.27 C29.07 156.25 28.62 162.5 28.63 168.99 C28.64 171.19 28.69 173.4 28.74 175.61 C28.75 177.02 28.76 178.44 28.77 179.86 C28.78 181.13 28.79 182.41 28.81 183.73 C28.02 188.37 26.54 190 23.21 193.27 C22.55 193.27 21.89 193.27 21.21 193.27 C21.99 194.01 22.77 194.75 23.58 195.52 C28.02 200.17 28.52 203.63 28.54 209.95 C28.55 210.69 28.56 211.43 28.56 212.19 C28.57 213.75 28.58 215.31 28.58 216.87 C28.58 219.26 28.62 221.64 28.66 224.02 C28.66 225.54 28.67 227.06 28.67 228.58 C28.68 229.29 28.7 230 28.71 230.73 C28.68 234.16 28.45 235.95 26.32 238.7 C24.21 240.26 22.78 240.9 20.21 241.27 C20.21 242.26 20.21 243.25 20.21 244.27 C20.95 244.31 21.69 244.35 22.46 244.39 C25.21 245.27 25.21 245.27 27.52 247.77 C29.63 252.14 29.59 255.51 29.21 260.27 C28.22 260.27 27.23 260.27 26.21 260.27 C27.53 260.93 28.85 261.59 30.21 262.27 C30.21 287.02 30.21 311.77 30.21 337.27 C16.02 337.27 1.83 337.27 -12.79 337.27 C-12.79 307.9 -12.79 278.53 -12.79 248.27 C-12.13 248.27 -11.47 248.27 -10.79 248.27 C-10.46 247.28 -10.13 246.29 -9.79 245.27 C-8.14 244.94 -6.49 244.61 -4.79 244.27 C-6.61 242.26 -7.83 241.25 -10.36 240.2 C-12.79 238.27 -12.79 238.27 -13.44 234.41 C-13.47 232.8 -13.48 231.19 -13.46 229.58 C-13.46 228.73 -13.47 227.88 -13.47 227 C-13.47 225.2 -13.47 223.4 -13.44 221.6 C-13.42 218.84 -13.44 216.09 -13.48 213.33 C-13.47 211.58 -13.47 209.83 -13.46 208.08 C-13.47 207.26 -13.48 206.44 -13.49 205.59 C-13.37 199.83 -13.37 199.83 -10.31 196.84 C-9.48 196.32 -8.65 195.8 -7.79 195.27 C-7.3 194.28 -7.3 194.28 -6.79 193.27 C-7.6 192.96 -8.4 192.65 -9.23 192.33 C-11.79 191.27 -11.79 191.27 -12.79 190.27 C-12.88 187.31 -12.91 184.37 -12.89 181.42 C-12.89 180.53 -12.89 179.65 -12.89 178.73 C-12.88 175.89 -12.87 173.05 -12.86 170.2 C-12.85 168.28 -12.85 166.36 -12.84 164.44 C-12.83 159.71 -12.81 154.99 -12.79 150.27 C-10.32 149.28 -10.32 149.28 -7.79 148.27 C-8.6 147.63 -9.42 147 -10.25 146.35 C-13.71 142.15 -13.5 139.19 -13.42 133.91 C-13.43 132.57 -13.43 132.57 -13.43 131.2 C-13.43 129.31 -13.41 127.42 -13.39 125.54 C-13.36 122.64 -13.37 119.75 -13.39 116.86 C-13.38 115.02 -13.37 113.19 -13.36 111.35 C-13.36 110.49 -13.37 109.62 -13.37 108.73 C-13.26 102.74 -13.26 102.74 -10.76 100.2 C-10.11 99.89 -9.46 99.58 -8.79 99.27 C-9.44 98.97 -10.1 98.67 -10.77 98.36 C-13.56 95.47 -13.25 93.43 -13.25 89.52 C-13.23 88.62 -13.2 87.72 -13.18 86.79 C-13.18 85.86 -13.17 84.93 -13.17 83.97 C-13.14 81.01 -13.09 78.04 -13.04 75.08 C-13.02 73.07 -13 71.06 -12.99 69.05 C-12.94 64.12 -12.88 59.19 -12.79 54.27 C-10.81 53.77 -10.81 53.77 -8.79 53.27 C-8.46 51.95 -8.13 50.63 -7.79 49.27 C-9.44 48.94 -11.09 48.61 -12.79 48.27 C-12.79 33.09 -12.79 17.91 -12.79 2.27 C-4.9 0.01 -4.9 0.01 0 0 Z M27.21 255.27 C26.88 256.59 26.55 257.91 26.21 259.27 C26.87 259.27 27.53 259.27 28.21 259.27 C27.88 257.95 27.55 256.63 27.21 255.27 Z " fill="#EF8B09" transform="translate(12.79296875,3.734375)"/>
<path d="M0 0 C2.19 -0.03 4.38 -0.06 6.56 -0.08 C7.57 -0.11 8.59 -0.13 9.63 -0.16 C10.55 -0.17 11.48 -0.17 12.44 -0.18 C13.25 -0.2 14.06 -0.21 14.89 -0.23 C17.54 0.21 18.37 1.01 19.99 3.12 C21.8 8.56 21.21 14.43 21.24 20.12 C21.26 21.42 21.28 22.71 21.3 24.05 C21.31 25.91 21.31 25.91 21.31 27.81 C21.32 28.94 21.33 30.08 21.34 31.26 C20.99 34.12 20.99 34.12 19.78 35.95 C15.15 38.97 9.29 38.25 3.97 38.22 C3.11 38.22 2.25 38.21 1.37 38.21 C-1.37 38.21 -4.1 38.19 -6.83 38.18 C-8.68 38.18 -10.54 38.17 -12.39 38.17 C-16.93 38.16 -21.47 38.14 -26.01 38.12 C-25.9 44.62 -25.77 51.11 -25.64 57.61 C-25.6 59.82 -25.56 62.03 -25.52 64.24 C-25.46 67.41 -25.39 70.59 -25.33 73.76 C-25.31 74.75 -25.3 75.75 -25.28 76.77 C-25.25 78.15 -25.25 78.15 -25.22 79.56 C-25.2 80.77 -25.2 80.77 -25.17 82.01 C-25.09 84.31 -25.09 84.31 -24.01 87.12 C-22.94 87.1 -21.86 87.09 -20.76 87.07 C-16.77 87.02 -12.78 86.98 -8.8 86.95 C-7.07 86.94 -5.35 86.92 -3.62 86.89 C-1.14 86.86 1.34 86.84 3.82 86.83 C4.59 86.81 5.36 86.8 6.16 86.78 C11.4 86.78 11.4 86.78 13.96 88.26 C15.42 90.91 15.46 93.09 15.57 96.11 C15.61 97.29 15.66 98.47 15.7 99.69 C15.75 101.54 15.75 101.54 15.8 103.43 C15.88 105.27 15.88 105.27 15.95 107.14 C16.14 112.95 16.28 117.67 13.99 123.12 C10.81 124.71 7.4 124.24 3.92 124.22 C3.12 124.22 2.32 124.21 1.5 124.21 C-1.04 124.21 -3.59 124.19 -6.14 124.18 C-7.86 124.18 -9.59 124.17 -11.31 124.17 C-15.55 124.16 -19.78 124.14 -24.01 124.12 C-24.04 130.92 -24.06 137.72 -24.07 144.52 C-24.07 146.83 -24.08 149.15 -24.09 151.46 C-24.1 154.78 -24.11 158.1 -24.11 161.42 C-24.12 162.46 -24.12 163.5 -24.13 164.57 C-24.13 165.54 -24.13 166.5 -24.13 167.49 C-24.13 168.33 -24.13 169.18 -24.13 170.06 C-24.15 172.18 -24.15 172.18 -23.01 174.12 C-21.83 174.07 -20.64 174.03 -19.42 173.98 C-15.01 173.81 -10.61 173.67 -6.2 173.53 C-4.29 173.46 -2.39 173.39 -0.48 173.32 C2.26 173.21 5 173.13 7.75 173.04 C9.02 172.99 9.02 172.99 10.32 172.93 C15.06 172.81 18.15 172.99 21.99 176.12 C24.27 180.68 23.22 186.99 23.24 191.99 C23.26 193.29 23.28 194.58 23.3 195.91 C23.31 197.77 23.31 197.77 23.31 199.67 C23.32 200.81 23.33 201.95 23.34 203.13 C22.94 206.52 22.59 207.89 19.99 210.12 C16.93 210.67 16.93 210.67 13.11 210.73 C12.41 210.75 11.71 210.76 10.99 210.78 C8.65 210.83 6.32 210.85 3.99 210.87 C2.35 210.89 0.72 210.92 -0.91 210.95 C-4.41 211 -7.91 211.04 -11.41 211.06 C-16.25 211.11 -21.09 211.19 -25.93 211.29 C-29.87 211.36 -33.81 211.41 -37.75 211.46 C-39.68 211.48 -41.6 211.51 -43.52 211.55 C-46.22 211.61 -48.92 211.63 -51.62 211.64 C-52.42 211.67 -53.23 211.69 -54.06 211.71 C-56.31 211.7 -56.31 211.7 -60.01 211.12 C-62.99 207.39 -63.4 204.41 -63.45 199.72 C-63.47 198.43 -63.49 197.13 -63.51 195.8 C-63.52 194.37 -63.53 192.94 -63.54 191.51 C-63.56 190 -63.58 188.49 -63.6 186.98 C-63.65 182.87 -63.69 178.76 -63.72 174.65 C-63.76 170.31 -63.81 165.97 -63.87 161.63 C-63.95 154.3 -64.03 146.97 -64.09 139.63 C-64.19 129.45 -64.3 119.27 -64.42 109.08 C-64.51 101.04 -64.6 92.99 -64.68 84.95 C-64.69 84.11 -64.7 83.28 -64.71 82.42 C-64.81 72.8 -64.9 63.19 -64.96 53.57 C-64.99 48.25 -65.06 42.94 -65.13 37.62 C-65.19 33.82 -65.22 30.01 -65.26 26.21 C-65.27 24.38 -65.3 22.55 -65.33 20.72 C-65.38 18.18 -65.4 15.65 -65.42 13.11 C-65.44 12.36 -65.46 11.61 -65.48 10.83 C-65.47 7.34 -65.28 5.47 -63.14 2.65 C-60.56 0.79 -59.15 0.61 -55.98 0.57 C-54.48 0.54 -54.48 0.54 -52.94 0.51 C-51.32 0.51 -51.32 0.51 -49.65 0.51 C-47.95 0.48 -47.95 0.48 -46.21 0.46 C-42.56 0.41 -38.91 0.39 -35.26 0.37 C-32.88 0.34 -30.5 0.31 -28.12 0.28 C-22.25 0.21 -16.37 0.17 -10.49 0.14 C-7 0.12 -3.5 0.06 0 0 Z " fill="#2C6471" transform="translate(1139.013671875,4.880859375)"/>
<path d="M0 0 C2.84 0.08 5.04 0.54 7.25 2.37 C11.77 8.26 11.53 15.43 11.6 22.54 C11.62 24.63 11.68 26.73 11.75 28.83 C11.9 35.28 11.85 40.9 9.69 47.07 C7.35 49.33 5.78 50.04 2.69 51.07 C8.96 51.07 15.23 51.07 21.69 51.07 C21.69 50.41 21.69 49.75 21.69 49.07 C20.76 48.64 20.76 48.64 19.81 48.2 C17.69 47.07 17.69 47.07 15.69 45.07 C15.4 42.58 15.24 40.19 15.17 37.69 C15.14 36.95 15.11 36.22 15.09 35.46 C15.03 33.9 14.98 32.34 14.94 30.78 C14.87 28.41 14.78 26.04 14.68 23.68 C14.63 22.16 14.59 20.64 14.54 19.12 C14.51 18.42 14.48 17.72 14.45 17 C14.32 10.94 15.87 6.52 19.46 1.68 C23.74 -1.41 29 -0.67 34.1 -0.67 C36.12 -0.68 38.12 -0.75 40.13 -0.83 C49.51 -0.88 49.51 -0.88 52.67 1.7 C57.83 9.46 56.9 19.14 56.94 28.07 C56.96 29.33 56.98 30.59 57 31.88 C57.01 33.71 57.01 33.71 57.01 35.57 C57.02 36.68 57.03 37.78 57.04 38.92 C56.63 42.58 55.6 44.94 53.69 48.07 C50.58 50.14 50.04 50.3 46.56 50.13 C45.28 50.11 44 50.09 42.69 50.07 C42.36 50.4 42.03 50.73 41.69 51.07 C42.23 51.38 42.77 51.68 43.33 51.99 C44.05 52.41 44.76 52.83 45.5 53.26 C46.21 53.67 46.91 54.07 47.64 54.49 C50.88 57 52.47 59.74 53.12 63.79 C53.14 64.76 53.17 65.72 53.2 66.72 C53.23 67.8 53.27 68.88 53.31 70 C53.33 71.14 53.35 72.27 53.37 73.45 C53.4 74.61 53.44 75.77 53.47 76.97 C53.53 79.28 53.58 81.59 53.62 83.9 C53.68 86.62 53.75 89.33 53.85 92.05 C53.88 93.39 53.91 94.73 53.94 96.07 C53.96 97.21 53.99 98.34 54.01 99.51 C53.9 100.36 53.8 101.2 53.69 102.07 C48.91 105.25 43.79 104.4 38.19 104.38 C37.03 104.4 35.88 104.42 34.69 104.43 C33.58 104.43 32.48 104.43 31.34 104.44 C30.33 104.44 29.32 104.44 28.27 104.44 C25.69 104.07 25.69 104.07 23.86 102.81 C22.43 100.69 22.28 99.42 22.21 96.88 C22.18 96.08 22.15 95.28 22.11 94.46 C22.1 93.63 22.08 92.8 22.06 91.95 C22.39 86.59 22.39 86.59 20.69 82.07 C16.07 82.07 11.45 82.07 6.69 82.07 C7.68 122.66 7.68 122.66 8.69 164.07 C13.31 164.07 17.93 164.07 22.69 164.07 C22.72 162.51 22.76 160.94 22.8 159.33 C22.86 157.29 22.93 155.24 23 153.2 C23.02 152.16 23.04 151.13 23.07 150.07 C23.1 149.08 23.14 148.1 23.17 147.08 C23.2 146.17 23.23 145.26 23.25 144.32 C23.4 143.58 23.54 142.84 23.69 142.07 C28.46 138.89 33.58 139.74 39.19 139.76 C40.34 139.74 41.49 139.73 42.68 139.71 C43.79 139.71 44.89 139.71 46.03 139.71 C47.55 139.7 47.55 139.7 49.1 139.7 C51.69 140.07 51.69 140.07 53.51 141.4 C56.65 145.86 55.54 153.69 55.69 159.07 C55.71 159.89 55.74 160.7 55.77 161.54 C55.84 164.03 55.89 166.52 55.94 169.01 C55.97 170.16 55.97 170.16 56 171.34 C56.03 177.38 55.38 184.21 51.07 188.79 C47.88 191.41 45.94 192.05 41.75 192.38 C40.23 192.23 40.23 192.23 38.69 192.07 C38.36 192.73 38.03 193.39 37.69 194.07 C37.69 193.41 37.69 192.75 37.69 192.07 C37.05 192.24 36.41 192.4 35.75 192.57 C32.39 193.12 29.26 193.1 25.87 193.01 C23.65 193.07 21.83 193.53 19.69 194.07 C18.15 194.16 16.6 194.2 15.06 194.2 C14.28 194.2 13.51 194.2 12.71 194.21 C10.69 194.07 10.69 194.07 8.69 193.07 C6.69 193.03 4.68 193.03 2.69 193.07 C2.69 193.4 2.69 193.73 2.69 194.07 C-5.22 194.5 -10.79 194.79 -17.31 190.07 C-18.43 189.7 -18.43 189.7 -19.56 189.32 C-22.59 187.16 -23.35 183.53 -24.31 180.07 C-24.71 177.22 -24.75 174.41 -24.75 171.53 C-24.76 170.72 -24.77 169.9 -24.78 169.06 C-24.81 166.38 -24.82 163.7 -24.83 161.03 C-24.84 159.13 -24.86 157.24 -24.88 155.34 C-24.93 150.35 -24.96 145.36 -24.98 140.36 C-25.01 135.38 -25.06 130.4 -25.11 125.42 C-25.18 116.87 -25.24 108.32 -25.27 99.77 C-25.3 94.94 -25.33 90.11 -25.38 85.27 C-25.41 82.03 -25.44 78.79 -25.46 75.56 C-25.48 73.88 -25.48 73.88 -25.51 72.16 C-25.51 71.15 -25.52 70.14 -25.52 69.09 C-25.53 67.81 -25.53 67.81 -25.55 66.49 C-25 60.83 -22.45 57.81 -18.31 54.07 C-17 53.04 -15.68 52.03 -14.31 51.07 C-16.14 51.17 -16.14 51.17 -18 51.26 C-21.91 51.27 -24.15 50.49 -27.31 48.07 C-31.11 44.28 -29.91 37.51 -30.06 32.32 C-30.13 30.04 -30.22 27.77 -30.32 25.5 C-30.92 8.75 -30.92 8.75 -26.01 2.38 C-23.77 0.65 -22.3 0.63 -19.49 0.53 C-18.54 0.49 -17.6 0.45 -16.62 0.4 C-15.63 0.38 -14.65 0.35 -13.63 0.32 C-12.66 0.28 -11.69 0.24 -10.69 0.19 C-7.13 0.06 -3.56 0.11 0 0 Z M25.69 48.07 C25.69 48.4 25.69 48.73 25.69 49.07 C28 49.07 30.31 49.07 32.69 49.07 C32.69 48.74 32.69 48.41 32.69 48.07 C30.38 48.07 28.07 48.07 25.69 48.07 Z M22.69 50.07 C22.69 50.4 22.69 50.73 22.69 51.07 C24.34 51.07 25.99 51.07 27.69 51.07 C27.69 50.74 27.69 50.41 27.69 50.07 C26.04 50.07 24.39 50.07 22.69 50.07 Z M29.69 50.07 C29.69 50.4 29.69 50.73 29.69 51.07 C31.34 51.07 32.99 51.07 34.69 51.07 C34.69 50.74 34.69 50.41 34.69 50.07 C33.04 50.07 31.39 50.07 29.69 50.07 Z M-7.31 192.07 C-7.31 192.4 -7.31 192.73 -7.31 193.07 C-4.67 193.07 -2.03 193.07 0.69 193.07 C0.69 192.74 0.69 192.41 0.69 192.07 C-1.95 192.07 -4.59 192.07 -7.31 192.07 Z " fill="#2C6470" transform="translate(73.31494140625,2.927734375)"/>
<path d="M0 0 C1.55 -0.02 3.09 -0.04 4.64 -0.06 C5.72 -0.08 5.72 -0.08 6.82 -0.1 C10.55 -0.14 12.08 -0.05 15.27 2.08 C16.94 7.08 16.46 12.29 16.46 17.53 C16.46 19.57 16.48 21.61 16.5 23.65 C16.5 24.94 16.5 26.22 16.5 27.55 C16.51 28.73 16.51 29.91 16.52 31.12 C16.27 34.08 16.27 34.08 14.27 37.08 C11.75 37.42 11.75 37.42 8.61 37.37 C7.49 37.36 6.37 37.35 5.21 37.34 C4.04 37.32 2.86 37.29 1.65 37.26 C-0.13 37.24 -0.13 37.24 -1.94 37.22 C-4.87 37.19 -7.8 37.14 -10.73 37.08 C-10.72 37.98 -10.72 37.98 -10.71 38.9 C-10.58 53.82 -10.46 68.73 -10.33 83.64 C-10.27 90.85 -10.21 98.06 -10.15 105.28 C-10 122.96 -9.87 140.65 -9.75 158.33 C-9.73 161.98 -9.7 165.63 -9.67 169.28 C-9.63 174.69 -9.6 180.11 -9.58 185.52 C-9.57 187.47 -9.56 189.41 -9.55 191.36 C-9.53 193.99 -9.52 196.61 -9.51 199.24 C-9.5 200 -9.5 200.76 -9.49 201.54 C-9.49 205.28 -9.6 206.88 -11.73 210.08 C-14.83 210.56 -14.83 210.56 -18.78 210.69 C-19.48 210.72 -20.18 210.74 -20.9 210.77 C-22.37 210.82 -23.85 210.86 -25.33 210.9 C-27.59 210.95 -29.84 211.04 -32.1 211.13 C-33.53 211.18 -34.97 211.22 -36.41 211.26 C-38.37 211.31 -38.37 211.31 -40.37 211.37 C-44.1 211.04 -45.19 210.77 -47.73 208.08 C-48.21 205.47 -48.41 203.26 -48.46 200.64 C-48.49 199.85 -48.51 199.07 -48.54 198.26 C-48.63 195.53 -48.68 192.81 -48.73 190.08 C-48.74 189.07 -48.76 188.07 -48.78 187.04 C-48.89 180.04 -48.95 173.04 -48.99 166.03 C-49.01 162.05 -49.03 158.06 -49.06 154.07 C-49.12 145.6 -49.17 137.12 -49.23 128.64 C-49.28 119.51 -49.34 110.38 -49.4 101.25 C-49.44 96.69 -49.46 92.14 -49.49 87.58 C-49.59 71.4 -50.03 55.25 -50.73 39.08 C-53.66 38.3 -56.09 38 -59.13 38.12 C-60.37 38.15 -60.37 38.15 -61.64 38.18 C-63.36 38.24 -65.09 38.3 -66.82 38.38 C-67.64 38.4 -68.47 38.41 -69.32 38.43 C-70.44 38.47 -70.44 38.47 -71.59 38.52 C-74.74 37.87 -75.84 36.66 -77.73 34.08 C-78.23 30.92 -78.23 30.92 -78.22 27.23 C-78.22 26.58 -78.22 25.92 -78.23 25.25 C-78.22 23.87 -78.21 22.5 -78.19 21.12 C-78.16 19.02 -78.17 16.91 -78.18 14.81 C-78.18 13.47 -78.17 12.13 -78.16 10.79 C-78.15 9.58 -78.14 8.36 -78.13 7.11 C-77.73 4.08 -77.73 4.08 -76.61 2.41 C-73.83 0.44 -71.61 0.68 -68.23 0.64 C-67.57 0.63 -66.92 0.62 -66.24 0.61 C-64.07 0.58 -61.89 0.57 -59.72 0.57 C-58.19 0.55 -56.67 0.53 -55.14 0.51 C-51.12 0.46 -47.09 0.43 -43.06 0.41 C-39.03 0.38 -34.99 0.33 -30.96 0.29 C-23.61 0.21 -16.27 0.13 -8.93 0.1 C-5.95 0.09 -2.98 0.05 0 0 Z " fill="#2C6471" transform="translate(618.7255249023438,10.922943115234375)"/>
<path d="M0 0 C1.08 -0.01 1.08 -0.01 2.19 -0.02 C3.71 -0.03 5.23 -0.04 6.75 -0.03 C9.09 -0.03 11.41 -0.07 13.75 -0.12 C15.23 -0.12 16.71 -0.13 18.19 -0.12 C18.88 -0.14 19.58 -0.16 20.3 -0.17 C22.27 -0.15 22.27 -0.15 25.59 0.47 C29.53 4.93 29.07 10.02 29.1 15.65 C29.12 16.67 29.14 17.7 29.16 18.76 C29.21 22.17 29.25 25.59 29.28 29.01 C29.31 31.43 29.34 33.85 29.38 36.27 C29.73 62.85 29.71 89.44 29.66 116.02 C29.65 122.54 29.65 129.06 29.64 135.58 C29.63 148.21 29.62 160.84 29.59 173.47 C31.57 173.45 31.57 173.45 33.59 173.44 C38.47 173.4 43.35 173.38 48.23 173.36 C50.34 173.35 52.46 173.34 54.57 173.32 C57.6 173.29 60.64 173.28 63.68 173.27 C64.62 173.26 65.57 173.25 66.55 173.24 C67.43 173.24 68.31 173.24 69.21 173.24 C69.99 173.24 70.76 173.23 71.56 173.23 C73.59 173.47 73.59 173.47 76.59 175.47 C76.97 178.6 76.97 178.6 76.96 182.59 C76.96 183.65 76.96 183.65 76.96 184.72 C76.96 186.21 76.95 187.7 76.93 189.18 C76.91 191.46 76.91 193.74 76.92 196.02 C76.87 207.19 76.87 207.19 74.59 209.47 C71.98 209.79 71.98 209.79 68.58 209.88 C66.64 209.94 66.64 209.94 64.66 210 C63.22 210.03 61.78 210.06 60.34 210.09 C59.62 210.11 58.89 210.13 58.14 210.15 C52.29 210.29 46.44 210.39 40.59 210.47 C39.61 210.48 38.63 210.5 37.61 210.51 C31.33 210.6 25.05 210.66 18.77 210.7 C16.69 210.71 14.62 210.73 12.54 210.75 C9.61 210.78 6.68 210.79 3.75 210.8 C2.87 210.81 1.99 210.82 1.08 210.83 C-0.14 210.83 -0.14 210.83 -1.38 210.83 C-2.44 210.83 -2.44 210.83 -3.53 210.84 C-6.07 210.34 -6.82 209.52 -8.41 207.47 C-8.81 204.96 -8.81 204.96 -8.84 201.91 C-8.86 200.75 -8.88 199.59 -8.91 198.4 C-8.91 197.13 -8.92 195.85 -8.93 194.54 C-8.95 193.18 -8.97 191.83 -8.99 190.47 C-9.05 186.77 -9.08 183.06 -9.11 179.36 C-9.15 175.42 -9.21 171.49 -9.26 167.56 C-9.34 160.9 -9.42 154.23 -9.49 147.57 C-9.58 138.39 -9.69 129.21 -9.81 120.04 C-10.03 102.45 -10.21 84.86 -10.35 67.27 C-10.39 62.78 -10.43 58.28 -10.47 53.78 C-10.54 46.23 -10.59 38.67 -10.62 31.11 C-10.64 28.63 -10.66 26.14 -10.68 23.65 C-10.71 20.28 -10.72 16.9 -10.73 13.53 C-10.74 12.54 -10.75 11.55 -10.77 10.54 C-10.76 9.64 -10.76 8.74 -10.76 7.82 C-10.76 7.05 -10.77 6.27 -10.77 5.48 C-9.72 -0.3 -4.89 0 0 0 Z " fill="#2C6471" transform="translate(985.40625,6.53125)"/>
<path d="M0 0 C2.19 -0.01 4.39 -0.04 6.58 -0.07 C7.98 -0.08 9.37 -0.08 10.77 -0.09 C12.67 -0.1 12.67 -0.1 14.61 -0.12 C17.77 0.24 17.77 0.24 19.42 1.47 C21.11 3.69 21.25 5.09 21.44 7.85 C21.51 8.74 21.57 9.63 21.64 10.55 C21.83 14.54 21.94 18.52 21.96 22.51 C21.97 23.38 21.98 24.25 21.98 25.15 C22.01 28.02 22.03 30.89 22.05 33.76 C22.07 35.81 22.09 37.85 22.11 39.9 C22.14 44.23 22.18 48.56 22.22 52.89 C22.3 63 22.39 73.1 22.48 83.21 C22.5 85.45 22.53 87.69 22.55 89.93 C22.73 109.43 22.99 128.93 23.33 148.43 C23.35 149.69 23.38 150.95 23.4 152.25 C23.52 158.91 23.64 165.58 23.77 172.24 C26.55 173.03 28.96 173.35 31.85 173.27 C33.03 173.25 33.03 173.25 34.24 173.23 C35.09 173.2 35.93 173.18 36.8 173.16 C38.6 173.13 40.4 173.11 42.19 173.08 C45.02 173.04 47.85 172.99 50.67 172.92 C53.4 172.85 56.13 172.82 58.87 172.79 C60.14 172.74 60.14 172.74 61.43 172.7 C63.82 172.69 63.82 172.69 67.77 173.24 C72.46 178.19 71.28 185.35 71.27 191.74 C71.3 192.96 71.33 194.19 71.36 195.45 C71.36 197.22 71.36 197.22 71.36 199.02 C71.37 200.09 71.38 201.17 71.38 202.27 C70.54 206.34 68.99 207.66 65.77 210.24 C63 210.73 60.85 210.92 58.09 210.87 C56.95 210.88 56.95 210.88 55.8 210.89 C53.3 210.91 50.82 210.89 48.32 210.87 C46.59 210.87 44.86 210.87 43.12 210.88 C39.49 210.88 35.86 210.86 32.23 210.84 C27.58 210.8 22.92 210.81 18.27 210.83 C14.69 210.84 11.11 210.83 7.53 210.81 C5.81 210.81 4.1 210.81 2.38 210.82 C-0.02 210.82 -2.41 210.8 -4.81 210.77 C-5.52 210.78 -6.23 210.79 -6.96 210.79 C-11.74 210.7 -11.74 210.7 -13.91 208.67 C-15.68 205.41 -15.67 202.46 -15.67 198.84 C-15.68 198.1 -15.69 197.35 -15.7 196.58 C-15.73 194.07 -15.74 191.56 -15.75 189.06 C-15.77 187.26 -15.79 185.46 -15.82 183.67 C-15.87 178.78 -15.91 173.89 -15.94 169 C-15.98 163.88 -16.03 158.76 -16.08 153.63 C-16.18 143.91 -16.26 134.18 -16.34 124.46 C-16.42 113.46 -16.53 102.46 -16.64 91.45 C-16.79 75.19 -16.94 58.92 -17.07 42.66 C-17.09 40.91 -17.1 39.16 -17.12 37.41 C-17.15 33.49 -17.18 29.57 -17.2 25.64 C-17.22 22.65 -17.26 19.66 -17.31 16.66 C-17.33 15.22 -17.35 13.77 -17.36 12.32 C-17.39 11.05 -17.41 9.78 -17.43 8.47 C-17.24 5.4 -16.96 3.75 -15.23 1.24 C-10.83 -0.96 -4.89 0.01 0 0 Z " fill="#2C6471" transform="translate(893.230712890625,7.759765625)"/>
<path d="M0 0 C1.1 -0 2.2 -0.01 3.33 -0.01 C4.48 -0 5.64 0.01 6.82 0.02 C7.97 0.01 9.11 0 10.28 -0.01 C11.94 -0 11.94 -0 13.62 0 C14.63 0 15.64 0 16.68 0.01 C19.68 0.28 21.84 0.9 24.51 2.27 C25.64 4.58 25.64 4.58 26.51 7.27 C27.27 8.36 27.27 8.36 28.04 9.48 C30.72 14.55 29.99 20.37 29.96 25.99 C29.95 28.19 29.98 30.4 30.01 32.61 C30.01 34.02 30.01 35.44 30.01 36.86 C30.01 38.77 30.01 38.77 30.01 40.73 C29.42 44.89 28.14 47.02 25.51 50.27 C24.52 50.93 23.53 51.59 22.51 52.27 C23.27 52.8 24.04 53.34 24.82 53.89 C28.66 57.28 30.29 60.5 30.93 65.59 C31.02 72.24 31.02 72.24 31.01 75.15 C31.01 77.2 31.05 79.24 31.1 81.28 C31.12 92.3 31.12 92.3 28.11 96.71 C25.51 99.27 25.51 99.27 23.51 99.27 C23.51 99.93 23.51 100.59 23.51 101.27 C24.11 101.49 24.71 101.72 25.32 101.95 C28.18 103.67 29.03 105.3 30.51 108.27 C30.98 111.18 30.98 111.18 31.09 114.38 C31.14 115.54 31.18 116.71 31.23 117.91 C31.26 119.12 31.29 120.33 31.32 121.58 C31.4 123.38 31.4 123.38 31.48 125.21 C31.98 140.51 31.98 140.51 27.39 145.64 C26.46 146.44 26.46 146.44 25.51 147.27 C25.51 147.93 25.51 148.59 25.51 149.27 C26.36 150.05 27.2 150.83 28.07 151.64 C30.51 154.27 30.51 154.27 30.51 156.45 C29.51 158.27 29.51 158.27 26.51 160.27 C25.14 162.64 25.14 162.64 23.95 165.33 C21.72 170.16 21.72 170.16 19.51 171.27 C19.18 172.26 18.85 173.25 18.51 174.27 C17.03 175.26 17.03 175.26 15.51 176.27 C15.18 177.26 14.85 178.25 14.51 179.27 C13.03 180.26 13.03 180.26 11.51 181.27 C11.18 182.26 10.85 183.25 10.51 184.27 C9.18 185.27 7.85 186.27 6.51 187.27 C6.18 188.26 5.85 189.25 5.51 190.27 C0.65 195.24 0.65 195.24 -3.61 195.33 C-6.96 194.09 -8.42 193.18 -10.49 190.27 C-11.85 183.68 -11.74 176.97 -11.8 170.27 C-11.83 169.12 -11.86 167.97 -11.89 166.78 C-11.94 160.03 -11.53 155.76 -7.49 150.27 C-6.83 150.27 -6.17 150.27 -5.49 150.27 C-6.59 147.78 -7.66 146.08 -9.52 144.06 C-11.97 140.58 -12.07 138.44 -12.2 134.21 C-12.23 133.54 -12.25 132.87 -12.27 132.19 C-12.32 130.78 -12.36 129.38 -12.38 127.97 C-12.43 125.84 -12.51 123.7 -12.59 121.57 C-12.63 120.2 -12.67 118.83 -12.7 117.46 C-12.74 116.22 -12.77 114.99 -12.8 113.71 C-12.26 107.72 -9.31 103.75 -5.49 99.27 C-6.09 99.04 -6.68 98.81 -7.3 98.58 C-10.19 96.84 -11.02 95.31 -12.49 92.27 C-12.8 89.67 -12.96 87.32 -12.96 84.73 C-12.96 84.02 -12.97 83.31 -12.98 82.57 C-12.99 81.07 -12.99 79.57 -12.99 78.06 C-12.99 75.77 -13.03 73.48 -13.07 71.19 C-13.08 69.73 -13.08 68.26 -13.08 66.8 C-13.1 66.12 -13.11 65.44 -13.13 64.74 C-13.08 60.89 -12.6 59.39 -10.08 56.42 C-9.22 55.71 -8.37 55 -7.49 54.27 C-6.83 53.61 -6.17 52.95 -5.49 52.27 C-6.46 51.48 -7.43 50.7 -8.43 49.89 C-10.33 48.35 -11.38 47.47 -12.49 45.27 C-12.77 40.38 -12.8 35.49 -12.84 30.6 C-12.85 28.97 -12.88 27.34 -12.92 25.71 C-13.31 9 -13.31 9 -7.49 2.27 C-4.86 -0.36 -3.66 0.01 0 0 Z " fill="#EF8B09" transform="translate(146.48828125,0.734375)"/>
<path d="M0 0 C0.77 0.04 1.55 0.07 2.34 0.11 C14.15 0.78 14.15 0.78 17.94 4.56 C21 10.35 20.28 16.83 20.3 23.21 C20.31 25.25 20.34 27.28 20.38 29.31 C20.38 31.23 20.38 31.23 20.39 33.19 C20.4 34.95 20.4 34.95 20.42 36.75 C20.06 39.69 20.06 39.69 18.54 41.59 C18.05 41.95 17.57 42.32 17.06 42.69 C17.71 43.54 18.36 44.4 19.03 45.28 C21.26 49.02 21.57 50.93 21.61 55.23 C21.63 56.51 21.65 57.8 21.67 59.12 C21.67 60.51 21.67 61.91 21.67 63.3 C21.69 64.76 21.7 66.22 21.72 67.68 C21.77 71.53 21.79 75.38 21.8 79.22 C21.82 83.05 21.86 86.87 21.9 90.7 C21.98 98.01 22.02 105.33 22.05 112.65 C22.06 116.47 22.09 120.3 22.11 124.13 C22.12 126.32 22.13 128.51 22.14 130.7 C22.15 131.68 22.16 132.66 22.16 133.68 C22.17 134.57 22.17 135.46 22.17 136.38 C22.17 137.53 22.17 137.53 22.18 138.7 C22.06 140.69 22.06 140.69 21.06 143.69 C7.53 143.69 -6 143.69 -19.94 143.69 C-20.48 124.33 -20.48 124.33 -20.7 116.04 C-20.85 110.4 -21 104.76 -21.16 99.12 C-21.29 94.57 -21.41 90.02 -21.53 85.46 C-21.57 83.73 -21.62 82 -21.67 80.27 C-21.74 77.83 -21.81 75.4 -21.87 72.96 C-21.89 72.25 -21.91 71.55 -21.93 70.82 C-22.25 56.94 -22.25 56.94 -18.94 51.69 C-16.31 50.94 -16.31 50.94 -13.94 50.69 C-15.19 46.92 -16.6 46.61 -19.94 44.69 C-23.46 37.64 -22.07 26.46 -22.12 18.69 C-22.14 17.78 -22.15 16.87 -22.16 15.94 C-22.18 7.62 -22.18 7.62 -19.94 3.69 C-13.96 -0.96 -7.17 -0.43 0 0 Z " fill="#2C6470" transform="translate(66.9375,197.3125)"/>
<path d="M0 0 C0 24.75 0 49.5 0 75 C-14.19 75 -28.38 75 -43 75 C-43 51.57 -43 28.14 -43 4 C-29 2 -29 2 -22.56 1.56 C-17.71 1.21 -14.33 0.17 -10 -2 C-5.47 -3.92 -5.27 -2.63 0 0 Z " fill="#2C6470" transform="translate(43,266)"/>
<path d="M0 0 C0.77 0.04 1.55 0.07 2.34 0.11 C14.15 0.78 14.15 0.78 17.94 4.56 C21 10.35 20.28 16.83 20.3 23.21 C20.31 25.25 20.34 27.28 20.38 29.31 C20.38 31.23 20.38 31.23 20.39 33.19 C20.4 34.95 20.4 34.95 20.42 36.75 C20.03 39.99 19.55 40.72 17.06 42.69 C16.75 43.34 16.44 44 16.12 44.67 C14.82 47.14 13.36 48.29 11.12 49.94 C10.44 50.46 9.75 50.98 9.04 51.52 C7.06 52.69 7.06 52.69 4.06 52.69 C4.06 53.35 4.06 54.01 4.06 54.69 C2.82 55.36 1.57 56.03 0.31 56.69 C-0.38 57.06 -1.08 57.43 -1.8 57.81 C-3.94 58.69 -3.94 58.69 -7.94 58.69 C-8.41 59.16 -8.89 59.64 -9.38 60.12 C-12.04 62.79 -15.12 62.67 -18.75 62.75 C-19.83 62.72 -19.83 62.72 -20.94 62.69 C-21.25 54.55 -21.25 54.55 -18.94 51.69 C-16.31 50.94 -16.31 50.94 -13.94 50.69 C-15.19 46.92 -16.6 46.61 -19.94 44.69 C-23.46 37.64 -22.07 26.46 -22.12 18.69 C-22.14 17.78 -22.15 16.87 -22.16 15.94 C-22.18 7.62 -22.18 7.62 -19.94 3.69 C-13.96 -0.96 -7.17 -0.43 0 0 Z " fill="#EE8B09" transform="translate(66.9375,197.3125)"/>
<path d="M0 0 C2.01 -0.01 4.02 -0.08 6.03 -0.16 C15.41 -0.21 15.41 -0.21 18.57 2.36 C23.72 10.13 22.8 19.81 22.83 28.74 C22.85 30 22.87 31.26 22.9 32.55 C22.9 34.38 22.9 34.38 22.91 36.24 C22.92 37.34 22.93 38.45 22.94 39.58 C22.53 43.24 21.5 45.61 19.58 48.74 C16.09 51.07 14.68 50.99 10.58 50.74 C9.96 50.57 9.34 50.4 8.69 50.23 C6.28 49.67 4.21 49.69 1.74 49.78 C0.82 49.81 -0.09 49.83 -1.04 49.85 C-2.96 49.9 -4.88 49.97 -6.8 50.04 C-8.17 50.07 -8.17 50.07 -9.57 50.1 C-10.82 50.14 -10.82 50.14 -12.1 50.18 C-15.41 49.55 -16.47 48.48 -18.42 45.74 C-18.87 43.09 -19.09 40.82 -19.13 38.16 C-19.16 37.43 -19.18 36.69 -19.2 35.94 C-19.25 34.39 -19.28 32.85 -19.31 31.3 C-19.35 28.95 -19.44 26.6 -19.52 24.25 C-19.56 22.74 -19.6 21.23 -19.63 19.72 C-19.66 19.03 -19.68 18.33 -19.71 17.62 C-19.77 11.6 -18.21 7.16 -14.64 2.35 C-10.36 -0.74 -5.1 -0 0 0 Z " fill="#EF8B09" transform="translate(107.417236328125,2.2587890625)"/>
<path d="M0 0 C2.84 0.08 5.04 0.54 7.25 2.37 C11.77 8.26 11.53 15.43 11.6 22.54 C11.62 24.63 11.68 26.73 11.75 28.83 C11.9 35.28 11.84 40.89 9.69 47.07 C6.38 50.49 2.71 50.95 -1.91 51.23 C-4.88 51.28 -7.85 51.31 -10.81 51.32 C-11.85 51.34 -12.88 51.36 -13.94 51.38 C-23.33 51.43 -23.33 51.43 -27.31 48.07 C-31.11 44.28 -29.91 37.51 -30.06 32.32 C-30.13 30.04 -30.22 27.77 -30.32 25.5 C-30.92 8.75 -30.92 8.75 -26.01 2.38 C-23.77 0.65 -22.3 0.63 -19.49 0.53 C-18.54 0.49 -17.6 0.45 -16.62 0.4 C-15.63 0.38 -14.65 0.35 -13.63 0.32 C-12.66 0.28 -11.69 0.24 -10.69 0.19 C-7.13 0.06 -3.56 0.11 0 0 Z " fill="#F08C09" transform="translate(73.31494140625,2.927734375)"/>
<path d="M0 0 C4.77 1.86 7.17 6.79 9.81 11 C10.41 11.94 11 12.89 11.61 13.86 C14.95 19.23 18.26 24.61 21.56 30 C25.1 28.82 25.31 28.21 27.05 25.06 C27.51 24.25 27.97 23.44 28.44 22.6 C28.92 21.74 29.39 20.88 29.88 20 C39.1 3.47 39.1 3.47 42.56 0 C44.23 -0.04 45.9 -0.04 47.56 0 C53.89 13.42 53.04 29.88 53.48 44.47 C53.55 46.64 53.64 48.82 53.73 50.99 C53.75 52.05 53.78 53.1 53.81 54.19 C53.84 55.05 53.86 55.91 53.89 56.79 C53.48 59.55 52.37 60.93 50.56 63 C48.19 62.75 48.19 62.75 45.56 62 C38.86 51.76 41.97 30.8 41.56 19 C38.96 21.49 37.46 23.84 35.81 27.06 C27.51 42.6 27.51 42.6 21.56 45 C17.5 41.42 14.96 37.58 12.27 32.9 C10.53 29.94 8.71 27.05 6.87 24.16 C5.93 22.71 5.93 22.71 4.98 21.22 C4.51 20.49 4.05 19.75 3.56 19 C3.51 20.23 3.46 21.45 3.41 22.72 C3.22 27.26 3.02 31.81 2.82 36.35 C2.73 38.32 2.65 40.29 2.57 42.26 C2.45 45.08 2.33 47.91 2.2 50.74 C2.16 51.62 2.13 52.5 2.09 53.41 C2.05 54.23 2.01 55.05 1.97 55.9 C1.94 56.62 1.91 57.34 1.88 58.08 C1.56 60 1.56 60 -0.44 63 C-2.94 63.38 -2.94 63.38 -5.44 63 C-7.6 59.76 -7.67 59 -7.59 55.29 C-7.57 54.33 -7.55 53.38 -7.54 52.39 C-7.51 51.36 -7.48 50.33 -7.45 49.27 C-7.43 48.21 -7.4 47.14 -7.38 46.04 C-7.33 43.79 -7.28 41.53 -7.22 39.28 C-7.13 35.84 -7.05 32.41 -6.98 28.97 C-6.93 26.78 -6.88 24.59 -6.82 22.39 C-6.8 21.37 -6.78 20.35 -6.75 19.3 C-6.35 4.51 -6.35 4.51 -4.19 0.94 C-2.44 0 -2.44 0 0 0 Z " fill="#2C6471" transform="translate(680.4375,265)"/>
<path d="M0 0 C5.74 2.61 8.49 8.63 11.56 13.81 C12.51 15.39 13.46 16.97 14.41 18.55 C14.85 19.3 15.3 20.05 15.77 20.83 C16.93 22.72 18.14 24.55 19.41 26.38 C21.06 28.94 21.06 28.94 21.06 30.94 C25.09 29.6 25.92 27.1 27.81 23.56 C28.52 22.28 29.23 21.01 29.94 19.73 C30.29 19.09 30.65 18.45 31.01 17.79 C34.54 11.57 38.32 5.31 43.06 -0.06 C45.69 -0.56 45.69 -0.56 48.06 -0.06 C54.28 9.26 52.53 25.32 52.75 36.2 C52.81 39.16 52.9 42.12 52.98 45.07 C53.02 46.96 53.07 48.84 53.11 50.73 C53.14 51.61 53.16 52.49 53.19 53.4 C53.21 54.62 53.21 54.62 53.23 55.87 C53.25 56.94 53.25 56.94 53.28 58.04 C53.06 59.94 53.06 59.94 51.06 62.94 C48.69 62.75 48.69 62.75 46.06 61.94 C41.52 54.67 42.78 42.86 42.46 34.58 C42.25 29.63 41.87 24.83 41.06 19.94 C40.4 19.94 39.74 19.94 39.06 19.94 C38.83 20.76 38.61 21.58 38.37 22.43 C36.78 26.71 34.58 30.29 32.12 34.12 C31.68 34.84 31.24 35.55 30.78 36.28 C28.75 39.5 26.84 42.31 24.06 44.94 C18.63 43.57 16.81 40.24 14 35.75 C13.58 35.1 13.16 34.45 12.72 33.79 C10.66 30.58 8.7 27.33 6.82 24.01 C5.36 21.15 5.36 21.15 4.06 19.94 C4.02 21.1 3.97 22.26 3.93 23.45 C3.76 27.76 3.57 32.07 3.37 36.38 C3.29 38.24 3.21 40.11 3.14 41.97 C3.04 44.65 2.92 47.33 2.79 50.02 C2.76 50.85 2.74 51.68 2.71 52.54 C2.49 56.87 2.3 59.73 -0.94 62.94 C-5.81 62.06 -5.81 62.06 -6.94 60.94 C-7.04 59.56 -7.08 58.17 -7.08 56.79 C-7.09 55.91 -7.1 55.03 -7.1 54.12 C-7.1 53.16 -7.1 52.19 -7.11 51.2 C-7.11 50.21 -7.11 49.22 -7.12 48.2 C-7.12 46.09 -7.12 43.98 -7.12 41.87 C-7.12 38.68 -7.14 35.49 -7.16 32.29 C-7.24 5.79 -7.24 5.79 -3.49 1.14 C-1.94 -0.06 -1.94 -0.06 0 0 Z " fill="#2C6471" transform="translate(229.9375,270.0625)"/>
<path d="M0 0 C3.73 0.6 4.63 2.2 6.89 5.17 C7.67 6.18 8.45 7.19 9.25 8.23 C10.04 9.28 10.83 10.34 11.64 11.42 C12.38 12.39 13.11 13.37 13.87 14.37 C15.36 16.34 16.84 18.32 18.31 20.3 C20.8 23.64 23.34 26.94 25.89 30.23 C35.64 42.88 35.64 42.88 35.64 45.42 C36.3 45.42 36.96 45.42 37.64 45.42 C37.62 43.48 37.62 43.48 37.61 41.51 C37.57 36.72 37.55 31.94 37.53 27.16 C37.52 25.09 37.51 23.02 37.49 20.94 C37.47 17.97 37.45 15 37.45 12.02 C37.43 11.09 37.42 10.16 37.41 9.2 C37.41 7.91 37.41 7.91 37.41 6.6 C37.41 5.84 37.4 5.08 37.4 4.29 C37.64 2.42 37.64 2.42 39.64 0.42 C42.77 0.3 42.77 0.3 45.64 0.42 C48.96 7.05 47.8 16.9 47.81 24.2 C47.81 25.66 47.81 25.66 47.82 27.15 C47.82 29.19 47.83 31.22 47.83 33.26 C47.83 36.38 47.85 39.49 47.87 42.61 C47.87 44.6 47.87 46.59 47.87 48.57 C47.88 49.5 47.89 50.43 47.89 51.39 C47.89 52.26 47.89 53.12 47.88 54.01 C47.88 54.77 47.89 55.53 47.89 56.31 C47.61 58.71 46.83 60.34 45.64 62.42 C43.33 62.42 41.02 62.42 38.64 62.42 C37.98 60.77 37.32 59.12 36.64 57.42 C35.98 57.42 35.32 57.42 34.64 57.42 C33.3 55.83 32.05 54.17 30.83 52.48 C30.02 51.38 29.22 50.28 28.41 49.18 C27.97 48.58 27.53 47.98 27.08 47.36 C24.44 43.8 21.72 40.31 19.02 36.8 C14.81 31.34 10.74 25.84 6.91 20.11 C5.73 18.28 5.73 18.28 3.64 17.42 C3.8 18.24 3.96 19.05 4.13 19.89 C4.72 23.95 4.82 27.89 4.84 32 C4.85 32.8 4.86 33.61 4.86 34.44 C4.87 36.13 4.88 37.82 4.88 39.52 C4.89 42.11 4.92 44.71 4.95 47.3 C4.96 48.95 4.96 50.6 4.97 52.25 C4.98 53.02 4.99 53.8 5.01 54.59 C4.98 59.91 4.98 59.91 3.28 62.44 C1.64 63.42 1.64 63.42 -0.98 63.23 C-3.36 62.42 -3.36 62.42 -4.36 60.42 C-4.48 59.04 -4.55 57.66 -4.58 56.27 C-4.6 55.41 -4.63 54.55 -4.65 53.67 C-4.67 52.73 -4.69 51.8 -4.71 50.84 C-4.73 49.87 -4.76 48.91 -4.78 47.92 C-4.83 45.86 -4.87 43.81 -4.92 41.76 C-4.98 38.66 -5.06 35.56 -5.14 32.46 C-5.68 9.32 -5.68 9.32 -4.36 2.42 C-2.36 0.42 -2.36 0.42 0 0 Z " fill="#2C6471" transform="translate(798.359375,263.578125)"/>
<path d="M0 0 C8.93 5.17 15.99 11.83 19.35 21.77 C21.14 31.71 20.79 41.56 15.66 50.41 C11.17 56.5 4.79 62.59 -2.66 64.68 C-5.69 65.05 -8.64 65.17 -11.69 65.19 C-12.78 65.2 -13.87 65.22 -15 65.23 C-23.55 64.62 -30.89 59.9 -36.56 53.62 C-42.09 47.15 -43.98 40.58 -43.88 32.19 C-43.87 31.31 -43.86 30.43 -43.86 29.53 C-43.56 20.54 -40.54 14.77 -34.69 8.06 C-33.88 7.38 -33.08 6.7 -32.25 6 C-31.51 5.32 -30.76 4.64 -30 3.94 C-20.91 -2.46 -10.49 -4.81 0 0 Z M-29.25 14 C-35.17 21.57 -34.9 29.96 -34.05 39.21 C-32.98 45.09 -29.72 49.15 -25.25 53 C-19.69 56.61 -13.82 58.27 -7.25 57 C0.93 54.13 5.03 50.09 9.75 43 C11.57 35.55 11.99 26.12 8.75 19 C5.22 13.82 1.64 10.34 -4.25 8 C-7.97 7.57 -7.97 7.57 -11.81 7.69 C-13.09 7.69 -14.37 7.7 -15.69 7.7 C-21.44 8.19 -25.03 10.11 -29.25 14 Z " fill="#2C6471" transform="translate(946.25,262)"/>
<path d="M0 0 C0.75 0.01 1.5 0.01 2.28 0.02 C10.96 0.3 16.69 3.37 23.06 9.19 C30.33 16.97 33.13 25.66 32.88 36.16 C32.33 45.98 28.47 52.26 21.75 59.5 C14.43 65.98 7.44 67.92 -2.25 67.5 C-11.22 66.8 -17.97 62.17 -24.06 55.75 C-29.21 49.54 -32.69 40.84 -32.53 32.68 C-31.02 20.83 -25.09 12.69 -16.38 5.04 C-11.07 1.19 -6.51 -0.06 0 0 Z M-10.25 10.5 C-10.25 11.16 -10.25 11.82 -10.25 12.5 C-13.25 14 -13.25 14 -16.25 15.5 C-16.25 16.16 -16.25 16.82 -16.25 17.5 C-16.91 17.5 -17.57 17.5 -18.25 17.5 C-21.54 22.84 -21.77 27.29 -21.75 33.38 C-21.78 34.23 -21.81 35.09 -21.84 35.98 C-21.86 43.63 -19.08 48.01 -14.38 53.81 C-8.63 58.37 -3.38 59.06 3.82 58.84 C9.84 58.14 13.92 55.67 18.06 51.31 C22.74 45.32 24.36 38.58 24.1 31.05 C22.86 22.06 18.81 16.63 11.75 11.19 C5.34 7.68 -3.38 8.93 -10.25 10.5 Z " fill="#2C6471" transform="translate(1070.25,258.5)"/>
<path d="M0 0 C1.7 3.4 1.4 7.26 1.56 11 C1.6 11.94 1.64 12.88 1.69 13.85 C2.02 22.5 2.14 31.16 2.18 39.82 C2.18 41.35 2.19 42.89 2.21 44.42 C2.23 46.6 2.23 48.77 2.23 50.95 C2.23 52.21 2.24 53.47 2.24 54.77 C2.02 57.8 1.6 59.47 0 62 C-2.7 62.32 -2.7 62.32 -6 62 C-8.48 59.77 -8.48 59.77 -10.75 56.81 C-11.51 55.85 -12.27 54.89 -13.05 53.89 C-14.81 51.29 -15.98 48.96 -17 46 C-17.66 46 -18.32 46 -19 46 C-20.32 44.39 -21.55 42.71 -22.75 41 C-25.74 36.78 -28.78 32.63 -31.97 28.56 C-33 27 -33 27 -33 25 C-33.66 25 -34.32 25 -35 25 C-38 20.62 -38 20.62 -38 18 C-38.99 18.33 -39.98 18.66 -41 19 C-40.96 20.16 -40.92 21.32 -40.88 22.52 C-40.73 26.83 -40.59 31.13 -40.46 35.44 C-40.4 37.31 -40.34 39.17 -40.28 41.04 C-40.18 43.72 -40.1 46.4 -40.02 49.08 C-39.99 49.91 -39.96 50.74 -39.93 51.6 C-39.73 59.05 -39.73 59.05 -42 62 C-44.44 62.94 -44.44 62.94 -47 63 C-49.33 61.34 -49.93 60.38 -50.43 57.55 C-50.46 56.58 -50.48 55.61 -50.51 54.61 C-50.55 53.52 -50.58 52.43 -50.62 51.3 C-50.64 50.13 -50.66 48.96 -50.69 47.75 C-50.72 46.55 -50.75 45.35 -50.79 44.11 C-50.98 36.18 -51.09 28.25 -51.12 20.31 C-51.13 19.39 -51.13 18.46 -51.14 17.51 C-51.1 3.1 -51.1 3.1 -48 0 C-45.64 -0.38 -45.64 -0.38 -43 0 C-35.7 5.88 -30.45 14.76 -25.12 22.42 C-23.15 25.19 -21.06 27.87 -18.96 30.55 C-18 32 -18 32 -18 34 C-17.34 34 -16.68 34 -16 34 C-14.49 35.9 -14.49 35.9 -12.88 38.38 C-12.34 39.19 -11.8 40 -11.24 40.84 C-10 43 -10 43 -10 45 C-8.68 45.33 -7.36 45.66 -6 46 C-6.24 44.79 -6.24 44.79 -6.49 43.55 C-7.09 39.39 -7.14 35.37 -7.13 31.17 C-7.13 30.34 -7.13 29.51 -7.14 28.66 C-7.14 26.91 -7.13 25.17 -7.13 23.42 C-7.12 20.74 -7.13 18.07 -7.14 15.39 C-7.14 13.69 -7.13 11.99 -7.13 10.3 C-7.13 9.49 -7.14 8.69 -7.14 7.87 C-7.11 2.23 -7.11 2.23 -6 0 C-3 -1 -3 -1 0 0 Z " fill="#2C6471" transform="translate(413,269)"/>
<path d="M0 0 C0.76 0.53 1.52 1.06 2.3 1.61 C3.07 2.12 3.83 2.64 4.61 3.18 C5.17 3.65 5.73 4.12 6.3 4.61 C6.3 5.27 6.3 5.93 6.3 6.61 C6.96 6.61 7.62 6.61 8.3 6.61 C14.69 14.91 17.44 24.2 16.3 34.61 C14.12 45.15 8.8 52.75 0.23 59.16 C-7.34 63.71 -16.13 63.93 -24.7 62.61 C-28.2 61.44 -30.82 59.89 -33.7 57.61 C-34.25 57.21 -34.81 56.81 -35.39 56.41 C-41.44 51.84 -46.21 45.09 -47.7 37.61 C-48.8 24.62 -46.9 15.83 -38.55 5.61 C-35.88 2.72 -33.1 0.57 -29.7 -1.39 C-28.68 -1.99 -27.67 -2.59 -26.63 -3.21 C-17.43 -6.76 -8.15 -5.01 0 0 Z M-32.19 10.93 C-38.13 17.55 -38.77 23.87 -38.7 32.61 C-38.2 39.49 -35.67 44.79 -30.7 49.61 C-24.84 53.43 -18.73 55.48 -11.7 54.61 C-8.21 53.59 -4.84 52.44 -1.7 50.61 C-1.37 49.62 -1.04 48.63 -0.7 47.61 C0.29 47.28 1.28 46.95 2.3 46.61 C7.06 40.14 8.29 32.44 7.3 24.61 C6.01 20.42 4.26 16.52 2.3 12.61 C1.64 12.61 0.98 12.61 0.3 12.61 C-0.19 11.12 -0.19 11.12 -0.7 9.61 C-10.15 2.61 -23.69 2.68 -32.19 10.93 Z " fill="#2C6471" transform="translate(338.6953125,271.39453125)"/>
<path d="M0 0 C2.93 1.68 5.73 3.51 8.31 5.69 C8.31 6.35 8.31 7.01 8.31 7.69 C8.97 7.69 9.63 7.69 10.31 7.69 C17.42 16.24 19.95 24.19 19.65 35.23 C18.67 45.29 13.59 51.92 6.31 58.69 C-0.78 64.39 -7.84 65.02 -16.69 64.69 C-17.8 64.67 -18.91 64.65 -20.06 64.62 C-29.96 62.06 -37.19 53.94 -42.69 45.69 C-45.7 36.59 -45.95 25.75 -42.69 16.69 C-39.13 10.73 -34.31 5.73 -28.69 1.69 C-28.13 1.27 -27.57 0.86 -27 0.43 C-19.12 -4.45 -8.13 -3.97 0 0 Z M-28.5 11.88 C-31.16 15.29 -32.98 18.73 -34.69 22.69 C-35.12 23.68 -35.55 24.67 -36 25.69 C-37.48 32.14 -35.73 38.9 -32.69 44.69 C-28.41 51.22 -23.36 55 -15.69 56.69 C-9.05 57.12 -3.5 54.64 2.31 51.69 C2.31 51.03 2.31 50.37 2.31 49.69 C2.97 49.69 3.63 49.69 4.31 49.69 C9.15 44.31 10.19 38.84 10.06 31.81 C10.05 30.93 10.04 30.05 10.04 29.14 C9.74 21.72 7.82 16.85 2.31 11.69 C1.45 10.84 0.58 10 -0.31 9.12 C-9.74 5.11 -20.34 5.52 -28.5 11.88 Z " fill="#2C6471" transform="translate(536.6875,267.3125)"/>
<path d="M0 0 C4.64 3.6 8.49 7.54 9.37 13.52 C9.54 20.36 8.54 24.78 4 30 C1.19 32.5 1.19 32.5 -1 34 C0.73 40.02 3.83 44.67 7.22 49.88 C8.87 52.77 9.81 54.7 10 58 C9.34 58.99 8.68 59.98 8 61 C5.31 61 5.31 61 2 60 C0.02 57.34 -1.45 54.91 -3 52 C-4.04 50.16 -5.1 48.32 -6.15 46.48 C-6.88 45.21 -7.6 43.94 -8.32 42.66 C-9.91 39.65 -9.91 39.65 -12 37 C-14.18 36.77 -16.37 36.59 -18.56 36.44 C-19.76 36.35 -20.96 36.27 -22.19 36.18 C-23.58 36.09 -23.58 36.09 -25 36 C-24.98 36.92 -24.98 36.92 -24.95 37.86 C-24.89 40.66 -24.85 43.45 -24.81 46.25 C-24.79 47.22 -24.76 48.19 -24.74 49.18 C-24.72 50.59 -24.72 50.59 -24.71 52.02 C-24.68 53.3 -24.68 53.3 -24.66 54.62 C-25.07 57.48 -26.11 58.85 -28 61 C-32.88 60.12 -32.88 60.12 -34 59 C-34.16 56.56 -34.26 54.14 -34.32 51.7 C-34.34 50.95 -34.36 50.2 -34.38 49.43 C-34.45 47 -34.5 44.56 -34.56 42.12 C-34.58 41.3 -34.6 40.48 -34.62 39.64 C-34.76 34.09 -34.89 28.55 -35 23 C-35.02 21.85 -35.05 20.7 -35.08 19.52 C-35.13 16.86 -35.16 14.21 -35.19 11.56 C-35.2 10.84 -35.21 10.12 -35.23 9.37 C-35.23 5.5 -35.03 2.35 -33 -1 C-25.05 -5.94 -7.91 -4.31 0 0 Z M-26 7 C-26.03 9.96 -26.05 12.92 -26.06 15.88 C-26.07 16.72 -26.08 17.56 -26.09 18.43 C-26.09 19.23 -26.09 20.04 -26.1 20.87 C-26.1 21.61 -26.11 22.35 -26.11 23.12 C-26.12 25.09 -26.12 25.09 -25 27 C-22.1 27.08 -19.21 27.14 -16.31 27.19 C-15.5 27.21 -14.68 27.24 -13.84 27.26 C-9.05 27.32 -5.88 27.14 -2 24 C0.27 20.65 0.05 18.2 -0.69 14.38 C-1.44 11.03 -2.3 9.17 -5 7 C-8.72 5.76 -12.19 5.85 -16.06 5.88 C-16.8 5.87 -17.53 5.87 -18.28 5.86 C-22.27 5.79 -22.27 5.79 -26 7 Z " fill="#2C6471" transform="translate(1253,261)"/>
<path d="M0 0 C4.25 4.56 6.3 8.56 7.19 14.75 C6.84 21.04 3.35 26.24 -1.19 30.38 C-1.91 30.85 -2.63 31.32 -3.38 31.81 C-2.8 35.75 -1.61 38.45 0.5 41.81 C1.01 42.64 1.53 43.46 2.05 44.31 C3.13 46.02 4.21 47.72 5.3 49.42 C6.95 52.4 6.93 54.46 6.62 57.81 C6.29 58.14 5.97 58.47 5.62 58.81 C2.25 58.75 2.25 58.75 -1.38 57.81 C-2.94 55.38 -2.94 55.38 -4.38 51.81 C-5.35 50.11 -6.35 48.42 -7.38 46.75 C-7.87 45.93 -8.37 45.12 -8.88 44.28 C-9.92 42.55 -10.99 40.84 -12.06 39.13 C-13.38 36.81 -13.38 36.81 -13.38 34.81 C-18.33 34.81 -23.27 34.81 -28.38 34.81 C-28.35 36.38 -28.33 37.94 -28.3 39.55 C-28.29 41.6 -28.27 43.64 -28.25 45.69 C-28.23 46.72 -28.22 47.75 -28.2 48.82 C-28.19 49.8 -28.19 50.79 -28.18 51.8 C-28.17 52.72 -28.16 53.63 -28.15 54.57 C-28.38 56.81 -28.38 56.81 -30.38 58.81 C-33 58.94 -33 58.94 -35.38 58.81 C-37.95 52.91 -37.7 47.09 -37.71 40.77 C-37.72 39.62 -37.72 38.46 -37.73 37.26 C-37.74 34.82 -37.75 32.38 -37.75 29.94 C-37.75 26.19 -37.79 22.45 -37.82 18.71 C-37.83 16.34 -37.83 13.96 -37.84 11.59 C-37.85 10.47 -37.86 9.35 -37.88 8.19 C-37.87 7.15 -37.87 6.11 -37.86 5.04 C-37.86 4.12 -37.87 3.21 -37.87 2.27 C-37.22 -0.95 -35.89 -2.14 -33.38 -4.19 C-23.3 -7.4 -8.66 -6.36 0 0 Z M-29.38 5.81 C-29.58 7.74 -29.58 7.74 -29.39 9.91 C-29.34 10.71 -29.29 11.51 -29.24 12.34 C-29.18 13.18 -29.12 14.01 -29.06 14.88 C-29.01 15.72 -28.97 16.56 -28.92 17.42 C-29.03 21.45 -29.03 21.45 -27.38 24.81 C-24.46 24.99 -21.6 25.09 -18.69 25.12 C-17.88 25.15 -17.08 25.18 -16.25 25.21 C-10.85 25.27 -7.53 24.61 -3.38 20.81 C-2.42 18.6 -2.42 18.6 -2.44 16.25 C-2.39 15.49 -2.34 14.72 -2.29 13.93 C-2.29 11.62 -2.29 11.62 -3.38 8.81 C-8.61 4.13 -12.61 3.63 -19.44 3.62 C-20.17 3.61 -20.9 3.6 -21.66 3.59 C-25.98 3.42 -25.98 3.42 -29.38 5.81 Z " fill="#2C6471" transform="translate(601.375,270.1875)"/>
<path d="M0 0 C5.01 -0.17 7.39 -0.23 11.31 3.15 C10.98 4.8 10.65 6.45 10.31 8.15 C3.97 10.44 -1.93 10.39 -8.62 10.28 C-9.69 10.27 -10.76 10.26 -11.85 10.25 C-14.46 10.23 -17.08 10.19 -19.69 10.15 C-19.69 15.76 -19.69 21.37 -19.69 27.15 C-18.21 27.13 -16.73 27.11 -15.2 27.08 C-13.26 27.06 -11.32 27.05 -9.38 27.03 C-8.4 27.01 -7.42 26.99 -6.42 26.98 C-5.01 26.97 -5.01 26.97 -3.57 26.96 C-2.71 26.95 -1.85 26.94 -0.96 26.93 C1.31 27.15 1.31 27.15 4.31 29.15 C4.5 31.78 4.5 31.78 4.31 34.15 C1.37 35.82 -0.86 36.43 -4.23 36.57 C-5 36.6 -5.76 36.64 -6.54 36.67 C-7.5 36.71 -8.45 36.74 -9.44 36.78 C-12.49 36.9 -15.54 37.02 -18.69 37.15 C-18.69 43.42 -18.69 49.69 -18.69 56.15 C-16.72 56.05 -14.76 55.94 -12.74 55.83 C-10.16 55.71 -7.58 55.59 -5 55.46 C-3.71 55.39 -2.41 55.32 -1.08 55.24 C0.79 55.16 0.79 55.16 2.7 55.08 C3.85 55.02 4.99 54.96 6.17 54.9 C9.68 55.18 11.48 56.13 14.31 58.15 C13.94 61.09 13.94 61.09 13.31 64.15 C10.17 65.72 6.8 65.36 3.35 65.39 C2.56 65.4 1.77 65.41 0.96 65.42 C-0.71 65.43 -2.38 65.44 -4.05 65.45 C-6.61 65.46 -9.17 65.51 -11.72 65.55 C-13.35 65.56 -14.97 65.57 -16.59 65.58 C-17.36 65.6 -18.12 65.61 -18.91 65.63 C-24.17 65.61 -24.17 65.61 -26.63 63.44 C-28.49 59.42 -28.81 55.46 -28.86 51.07 C-28.88 50.09 -28.89 49.11 -28.9 48.09 C-28.91 47.04 -28.92 45.99 -28.93 44.9 C-28.93 43.81 -28.94 42.72 -28.95 41.6 C-28.96 39.29 -28.97 36.99 -28.98 34.69 C-28.99 32.33 -29.01 29.97 -29.04 27.62 C-29.09 24.21 -29.1 20.81 -29.11 17.4 C-29.13 16.35 -29.15 15.3 -29.17 14.21 C-29.15 9.78 -29.12 6.93 -26.95 2.99 C-24.42 0.93 -23.31 0.51 -20.09 0.45 C-19.21 0.42 -18.33 0.39 -17.43 0.36 C-16.04 0.35 -16.04 0.35 -14.62 0.34 C-13.21 0.31 -13.21 0.31 -11.77 0.27 C-9.91 0.23 -8.05 0.2 -6.19 0.18 C-4.12 0.16 -2.06 0.09 0 0 Z " fill="#2C6471" transform="translate(771.6875,262.84765625)"/>
<path d="M0 0 C3.18 0.73 4.61 1.44 6.5 4.13 C7.1 5.44 7.1 5.44 7.72 6.77 C8.17 7.73 8.63 8.7 9.1 9.69 C9.56 10.72 10.02 11.75 10.5 12.81 C10.99 13.87 11.48 14.92 11.98 16 C14.77 22.1 17.4 28.22 19.67 34.54 C20.81 37.51 22.04 40.4 23.33 43.31 C23.75 44.26 24.16 45.2 24.6 46.18 C25.44 48.07 26.28 49.96 27.14 51.84 C27.53 52.71 27.91 53.58 28.3 54.47 C28.66 55.25 29.01 56.02 29.37 56.82 C30.09 59.3 29.85 60.59 29 63 C26.75 63.75 26.75 63.75 24 64 C20.65 61.26 18.98 58.36 17.25 54.44 C16.61 53.01 16.61 53.01 15.95 51.56 C15 49 15 49 15 46 C6.42 46.33 -2.16 46.66 -11 47 C-12.32 49.97 -13.64 52.94 -15 56 C-16.43 58.88 -17.86 61.59 -20 64 C-22.75 64.56 -22.75 64.56 -25 64 C-25.33 63.67 -25.66 63.34 -26 63 C-26 56 -23.66 50.49 -20.8 44.23 C-18.26 38.69 -16.18 33.07 -14.18 27.31 C-5.84 3.89 -5.84 3.89 0 0 Z M0 15 C-0.98 17.39 -1.96 19.79 -2.94 22.19 C-3.22 22.86 -3.49 23.53 -3.78 24.23 C-5.22 27.78 -6.55 31.17 -7 35 C-5.84 36.39 -5.84 36.39 -2.62 36.1 C-1.23 36.09 0.17 36.08 1.56 36.06 C2.27 36.06 2.98 36.05 3.72 36.05 C5.48 36.04 7.24 36.02 9 36 C9.33 35.01 9.66 34.02 10 33 C9.09 31.38 8.17 29.77 7.19 28.18 C4.92 24.02 3.52 19.48 2 15 C1.34 15 0.68 15 0 15 Z " fill="#2C6471" transform="translate(1183,259)"/>
<path d="M0 0 C3.33 0.02 3.33 0.02 7 1 C8.68 3.32 9.67 5.05 10.75 7.62 C11.03 8.23 11.3 8.83 11.59 9.46 C12.42 11.29 13.22 13.14 14 15 C14.53 16.23 15.05 17.46 15.58 18.68 C16.05 19.78 16.52 20.87 17 22 C17.97 24.17 18.95 26.33 19.94 28.5 C20.81 30.54 21.59 32.62 22.36 34.71 C23.48 37.72 24.72 40.63 26.08 43.54 C26.43 44.31 26.79 45.07 27.16 45.86 C27.89 47.43 28.64 48.99 29.39 50.55 C32.06 56.33 32.06 56.33 31.73 60.05 C31.49 60.69 31.25 61.34 31 62 C28.69 62.69 28.69 62.69 26 63 C23.24 60.85 21.98 58.24 20.5 55.12 C19.68 53.41 18.85 51.7 18 50 C17.68 49.08 17.36 48.16 17.03 47.21 C14.53 44.49 13.64 44.6 10.04 44.37 C8.04 44.37 6.05 44.39 4.06 44.44 C2.56 44.42 2.56 44.42 1.03 44.4 C-4.55 44.41 -4.55 44.41 -9.52 46.61 C-11.35 49.56 -12.57 52.48 -13.75 55.75 C-14.18 56.92 -14.61 58.09 -15.05 59.3 C-15.36 60.19 -15.68 61.08 -16 62 C-18.33 62.38 -20.66 62.71 -23 63 C-24 62 -24 62 -24.31 59.44 C-24.02 56.22 -23.63 54.99 -22.15 52.27 C-20.13 48.35 -18.64 44.43 -17.25 40.25 C-5.21 5.21 -5.21 5.21 0 0 Z M2 15 C1.66 15.82 1.32 16.64 0.98 17.48 C0.53 18.56 0.08 19.64 -0.38 20.75 C-0.82 21.82 -1.26 22.88 -1.71 23.98 C-3 27 -3 27 -4.16 29.14 C-5.27 31.27 -5.27 31.27 -5 35 C0.28 35 5.56 35 11 35 C10.25 29.74 9.59 26.35 7.62 21.62 C7.2 20.59 6.78 19.55 6.35 18.48 C5.19 15.69 5.19 15.69 2 15 Z " fill="#2C6471" transform="translate(636,266)"/>
<path d="M0 0 C3.86 1.87 7.39 3.64 10.17 6.98 C10.55 9.54 10.55 9.54 10.17 11.98 C9.18 12.64 8.19 13.3 7.17 13.98 C4.04 12.83 1.15 11.47 -1.83 9.98 C-3.78 9.86 -5.74 9.8 -7.7 9.79 C-8.75 9.78 -9.8 9.76 -10.88 9.75 C-13.79 9.98 -15.42 10.38 -17.83 11.98 C-19.23 14.79 -19.08 16.87 -18.83 19.98 C-17.12 23.44 -15.84 23.98 -12.13 25.25 C-10.66 25.63 -9.18 26 -7.7 26.36 C0.38 28.53 7.65 31.05 12.67 38.17 C15.06 42.65 15.59 45.92 15.17 50.98 C12.41 57.42 7.51 62.81 1.17 65.98 C-9.3 66.89 -18.04 67.29 -26.99 61.1 C-29.33 58.4 -29.7 56.52 -29.83 52.98 C-29.17 52.32 -28.51 51.66 -27.83 50.98 C-23.59 51.09 -20.6 52.57 -16.95 54.54 C-12.14 57.04 -9.21 57.7 -3.83 56.98 C-0.53 55.58 -0.53 55.58 2.17 53.98 C2.83 53.98 3.49 53.98 4.17 53.98 C4.2 52.4 4.22 50.81 4.23 49.23 C4.25 48.35 4.26 47.47 4.27 46.56 C4.15 43.18 4.15 43.18 3.17 39.98 C1.4 38.91 1.4 38.91 -0.83 38.36 C-1.64 38.11 -2.46 37.87 -3.3 37.62 C-5.63 37.03 -7.96 36.59 -10.33 36.17 C-16.97 34.75 -22.54 30.91 -26.89 25.73 C-29.12 22.14 -29.78 18.82 -29.58 14.61 C-27.77 8.27 -22.39 3.49 -16.85 0.23 C-11.25 -2.08 -5.7 -2.06 0 0 Z " fill="#2C6471" transform="translate(1018.828125,260.01953125)"/>
<path d="M0 0 C1.61 0.4 3.21 0.82 4.81 1.25 C5.71 1.48 6.6 1.71 7.52 1.95 C10.47 3.2 11.56 4.14 13 7 C12.96 10.43 12.2 11.77 9.97 14.39 C9.15 15.15 8.34 15.91 7.5 16.69 C4.33 19.53 4.33 19.53 2 23 C1.2 23.47 0.39 23.95 -0.44 24.44 C-3.24 25.9 -3.24 25.9 -5 29 C-5.76 29.45 -6.53 29.91 -7.31 30.38 C-10.16 31.95 -10.16 31.95 -12.62 34.62 C-15 37 -15 37 -18 38 C-18.33 38.66 -18.66 39.32 -19 40 C-21.32 40.41 -23.66 40.74 -26 41 C-29.22 35.9 -28.14 29.89 -27.94 24.1 C-27.88 22.01 -27.84 19.91 -27.8 17.82 C-27.76 16.48 -27.72 15.15 -27.68 13.81 C-27.65 12.6 -27.61 11.39 -27.58 10.14 C-26.9 6.44 -25.96 5.26 -23 3 C-20.27 2.09 -18.42 1.83 -15.59 1.72 C-14.32 1.66 -14.32 1.66 -13.03 1.61 C-11.25 1.53 -9.47 1.46 -7.7 1.39 C-6.85 1.36 -6.01 1.32 -5.15 1.28 C-4.38 1.25 -3.61 1.22 -2.81 1.19 C-0.98 1.19 -0.98 1.19 0 0 Z " fill="#EF8B09" transform="translate(118,196)"/>
<path d="M0 0 C0.97 -0.01 1.95 -0.02 2.95 -0.03 C4.54 -0.04 4.54 -0.04 6.15 -0.04 C7.23 -0.05 8.31 -0.05 9.42 -0.06 C11.71 -0.07 14 -0.08 16.28 -0.08 C19.79 -0.09 23.3 -0.12 26.81 -0.15 C29.03 -0.16 31.25 -0.16 33.46 -0.17 C34.52 -0.18 35.57 -0.19 36.66 -0.2 C38.12 -0.2 38.12 -0.2 39.61 -0.2 C40.47 -0.2 41.33 -0.2 42.22 -0.21 C42.91 -0.09 43.6 0.04 44.31 0.16 C46.31 3.16 46.31 3.16 45.93 5.85 C45.73 6.61 45.52 7.37 45.31 8.16 C42.54 9.08 40.92 9.28 38.08 9.26 C37.27 9.26 36.47 9.25 35.64 9.25 C34.81 9.24 33.98 9.23 33.12 9.22 C32.27 9.22 31.43 9.21 30.56 9.21 C28.47 9.2 26.39 9.18 24.31 9.16 C24.32 9.75 24.34 10.34 24.36 10.94 C24.53 17.07 24.69 23.21 24.84 29.34 C24.9 31.63 24.96 33.91 25.03 36.2 C25.12 39.49 25.21 42.78 25.28 46.08 C25.32 47.09 25.35 48.11 25.38 49.16 C25.49 54.26 25.38 58.39 23.31 63.16 C20.43 63.79 20.43 63.79 17.31 64.16 C14.11 60.96 14.18 57.68 14.1 53.3 C14.08 52.34 14.06 51.38 14.04 50.39 C14.02 49.36 14.01 48.33 13.99 47.27 C13.97 46.21 13.95 45.15 13.93 44.06 C13.86 40.68 13.8 37.29 13.74 33.91 C13.7 31.62 13.66 29.32 13.61 27.03 C13.51 21.41 13.4 15.78 13.31 10.16 C12.74 10.14 12.18 10.12 11.59 10.1 C9.04 10.01 6.49 9.9 3.93 9.79 C3.04 9.76 2.15 9.72 1.24 9.69 C0.39 9.65 -0.47 9.62 -1.34 9.58 C-2.13 9.54 -2.91 9.51 -3.72 9.48 C-5.69 9.16 -5.69 9.16 -7.69 7.16 C-7.44 4.1 -7.44 4.1 -6.69 1.16 C-4.27 -0.05 -2.71 0.02 0 0 Z " fill="#2C6471" transform="translate(858.693359375,261.8388671875)"/>
<path d="M0 0 C1.12 2.31 1.12 2.31 2 5 C0 8 0 8 -3 9 C-4.33 9.14 -5.67 9.25 -7.01 9.32 C-7.77 9.36 -8.53 9.4 -9.31 9.44 C-10.09 9.48 -10.88 9.52 -11.69 9.56 C-12.88 9.63 -12.88 9.63 -14.1 9.69 C-16.07 9.8 -18.03 9.9 -20 10 C-19.99 10.62 -19.98 11.24 -19.97 11.87 C-19.88 18.29 -19.82 24.72 -19.78 31.14 C-19.76 33.54 -19.73 35.94 -19.7 38.34 C-19.65 41.78 -19.63 45.23 -19.61 48.67 C-19.59 49.74 -19.57 50.82 -19.55 51.92 C-19.55 52.92 -19.55 53.92 -19.55 54.96 C-19.54 55.84 -19.53 56.71 -19.52 57.62 C-20.16 60.79 -21.5 62.01 -24 64 C-26.19 63.88 -26.19 63.88 -28 63 C-29.22 60.55 -29.2 58.83 -29.3 56.09 C-29.34 55.07 -29.38 54.05 -29.42 53 C-29.46 51.89 -29.5 50.79 -29.54 49.65 C-29.58 48.52 -29.62 47.39 -29.67 46.23 C-29.8 42.61 -29.93 38.99 -30.06 35.38 C-30.15 32.93 -30.25 30.48 -30.34 28.03 C-30.56 22.02 -30.78 16.01 -31 10 C-31.57 9.98 -32.13 9.96 -32.71 9.94 C-35.27 9.84 -37.82 9.74 -40.38 9.62 C-41.26 9.59 -42.15 9.56 -43.07 9.53 C-43.92 9.49 -44.77 9.45 -45.65 9.41 C-46.43 9.38 -47.22 9.35 -48.03 9.32 C-50 9 -50 9 -52 7 C-52.25 4.5 -52.25 4.5 -52 2 C-48.89 -1.11 -45.08 -0.38 -40.9 -0.45 C-39.99 -0.47 -39.08 -0.49 -38.14 -0.52 C-36.21 -0.56 -34.28 -0.6 -32.34 -0.63 C-29.41 -0.69 -26.47 -0.76 -23.54 -0.83 C-21.66 -0.87 -19.78 -0.91 -17.9 -0.95 C-17.03 -0.97 -16.16 -0.99 -15.26 -1.01 C-10.06 -1.1 -5.14 -0.77 0 0 Z " fill="#2C6471" transform="translate(493,267)"/>
<path d="M0 0 C2 0.69 2 0.69 4 2.69 C4.28 4.83 4.28 4.83 4.32 7.5 C4.34 8.51 4.36 9.51 4.38 10.54 C4.39 11.62 4.4 12.7 4.41 13.82 C4.43 14.93 4.45 16.03 4.47 17.17 C4.53 20.72 4.58 24.27 4.62 27.81 C4.66 30.21 4.7 32.61 4.74 35.01 C4.84 40.9 4.92 46.8 5 52.69 C8.23 53.76 10.48 53.77 13.88 53.71 C15.02 53.7 16.17 53.69 17.36 53.68 C19.79 53.64 22.21 53.6 24.64 53.56 C25.79 53.55 26.94 53.54 28.12 53.53 C29.18 53.51 30.23 53.49 31.32 53.48 C34 53.69 34 53.69 37 55.69 C37.38 58.69 37.38 58.69 37 61.69 C33.36 64.11 30.62 64.01 26.41 64.02 C25.67 64.03 24.93 64.04 24.16 64.04 C22.6 64.05 21.03 64.06 19.47 64.06 C17.07 64.06 14.68 64.1 12.29 64.14 C10.77 64.14 9.25 64.15 7.72 64.15 C7.01 64.16 6.3 64.18 5.56 64.19 C2.11 64.16 0.33 63.94 -2.42 61.78 C-4.86 58.54 -5.14 56.67 -5.24 52.66 C-5.26 51.61 -5.29 50.56 -5.32 49.48 C-5.34 48.35 -5.36 47.21 -5.39 46.04 C-5.41 44.87 -5.44 43.71 -5.46 42.51 C-5.52 40.05 -5.57 37.58 -5.61 35.11 C-5.69 31.33 -5.78 27.56 -5.87 23.78 C-5.92 21.39 -5.97 18.99 -6.01 16.6 C-6.04 15.47 -6.07 14.34 -6.1 13.17 C-6.12 12.12 -6.13 11.06 -6.15 9.98 C-6.17 9.05 -6.19 8.12 -6.21 7.17 C-5.98 4.5 -5.44 2.92 -4 0.69 C-2 -0.31 -2 -0.31 0 0 Z " fill="#2C6471" transform="translate(1116,260.3125)"/>
<path d="M0 0 C2.38 0.19 2.38 0.19 5 1 C6.84 4.54 7.25 7.52 7.26 11.48 C7.27 12.55 7.27 13.62 7.28 14.72 C7.27 15.87 7.27 17.01 7.27 18.2 C7.27 19.38 7.27 20.56 7.27 21.78 C7.27 24.28 7.27 26.78 7.26 29.28 C7.25 33.12 7.26 36.95 7.27 40.79 C7.27 43.21 7.27 45.64 7.27 48.07 C7.27 49.22 7.27 50.37 7.28 51.56 C7.27 52.62 7.27 53.68 7.26 54.78 C7.26 56.19 7.26 56.19 7.25 57.62 C7 60 7 60 5 63 C2.5 63.38 2.5 63.38 0 63 C-2.51 59.23 -2.35 56.15 -2.41 51.77 C-2.43 50.95 -2.45 50.13 -2.47 49.29 C-2.53 46.65 -2.58 44.01 -2.62 41.38 C-2.66 39.65 -2.7 37.93 -2.74 36.21 C-2.84 31.97 -2.9 27.73 -2.96 23.49 C-3 21.02 -3.06 18.55 -3.13 16.08 C-3.16 14.54 -3.18 13.01 -3.21 11.48 C-3.23 10.78 -3.26 10.08 -3.28 9.36 C-3.33 5.26 -2.89 2.98 0 0 Z " fill="#2C6471" transform="translate(428,268)"/>
<path d="M0 0 C0.99 0.5 0.99 0.5 2 1 C2.61 12.01 3.18 22.97 3 34 C1.51 34.5 1.51 34.5 0 35 C0 23.45 0 11.9 0 0 Z " fill="#91793D" transform="translate(0,301)"/>
<path d="M0 0 C-3.02 3.02 -6.67 2.69 -10.75 3.06 C-12.35 3.22 -13.95 3.38 -15.55 3.54 C-16.31 3.61 -17.07 3.69 -17.85 3.76 C-20.59 4.06 -23.29 4.51 -26 5 C-26 4.01 -26 3.02 -26 2 C-22.54 1.5 -19.09 1 -15.63 0.52 C-13.56 0.22 -11.5 -0.08 -9.43 -0.39 C-6.05 -0.88 -3.25 -1.22 0 0 Z " fill="#8C773F" transform="translate(26,268)"/>
<path d="M0 0 C-1.2 1.52 -1.2 1.52 -3 3 C-5.23 3.11 -5.23 3.11 -7.75 2.75 C-8.63 2.63 -9.51 2.52 -10.41 2.39 C-11.27 2.26 -12.12 2.13 -13 2 C-13.73 1.9 -14.46 1.8 -15.21 1.7 C-16.81 1.48 -18.41 1.24 -20 1 C-20.33 1.66 -20.66 2.32 -21 3 C-21 2.01 -21 1.02 -21 0 C-14.54 -2.15 -6.58 -1.46 0 0 Z " fill="#8E783E" transform="translate(116,52)"/>
<path d="M0 0 C-0.33 0.66 -0.66 1.32 -1 2 C-4.54 2.98 -7.97 3.16 -11.62 3.19 C-13.04 3.21 -13.04 3.21 -14.48 3.23 C-17 3 -17 3 -20 1 C-13.3 0.2 -6.74 -0.13 0 0 Z " fill="#91793D" transform="translate(80,51)"/>
<path d="M0 0 C1.98 0 3.96 0 6 0 C6 0.33 6 0.66 6 1 C4.02 1 2.04 1 0 1 C0 0.67 0 0.34 0 0 Z " fill="#F08C09" transform="translate(98,1)"/>
<path d="M0 0 C2 1 2 1 2 1 Z " fill="#91793D" transform="translate(80,196)"/>
<path d="M0 0 C2 1 2 1 2 1 Z " fill="#F08C09" transform="translate(120,1)"/>
<path d="M0 0 C2 1 2 1 2 1 Z " fill="#F08C09" transform="translate(70,1)"/>
<path d="" fill="#F08C09" transform="translate(0,0)"/>
<path d="" fill="#F08C09" transform="translate(0,0)"/>
<path d="" fill="#2C6471" transform="translate(0,0)"/>
<path d="" fill="#91793D" transform="translate(0,0)"/>
<path d="" fill="#F08C09" transform="translate(0,0)"/>
<path d="" fill="#91793D" transform="translate(0,0)"/>
<path d="" fill="#2C6471" transform="translate(0,0)"/>
<path d="" fill="#F08C09" transform="translate(0,0)"/>
<path d="" fill="#F08C09" transform="translate(0,0)"/>
</svg>
